<?xml version="1.0" encoding="UTF-8" standalone="no"?>
<svg
   version="1.1"
   viewBox="0 0 360 500"
   id="svg80"
   sodipodi:docname="labs_logo_inkscape.svg"
   inkscape:export-filename="labs_logo_invert.svg"
   inkscape:export-xdpi="96"
   inkscape:export-ydpi="96"
   inkscape:version="1.3.2 (091e20e, 2023-11-25, custom)"
   xmlns:inkscape="http://www.inkscape.org/namespaces/inkscape"
   xmlns:sodipodi="http://sodipodi.sourceforge.net/DTD/sodipodi-0.dtd"
   xmlns="http://www.w3.org/2000/svg"
   xmlns:svg="http://www.w3.org/2000/svg">
  <sodipodi:namedview
     id="namedview80"
     pagecolor="#0bffff"
     bordercolor="#000000"
     borderopacity="0.25"
     inkscape:showpageshadow="2"
     inkscape:pageopacity="0.0"
     inkscape:pagecheckerboard="0"
     inkscape:deskcolor="#d1d1d1"
     inkscape:export-bgcolor="#0b377e00"
     inkscape:zoom="1.642"
     inkscape:cx="179.96346"
     inkscape:cy="250"
     inkscape:window-width="1920"
     inkscape:window-height="1017"
     inkscape:window-x="-8"
     inkscape:window-y="-8"
     inkscape:window-maximized="1"
     inkscape:current-layer="svg80" />
  <!-- Generator: Adobe Illustrator 29.8.1, SVG Export Plug-In . SVG Version: 2.1.1 Build 2)  -->
  <defs
     id="defs1">
    <style
       id="style1">
      .st0 {
        fill: aqua;
      }

      .st0, .st1, .st2 {
        stroke: #b00000;
        stroke-linecap: round;
        stroke-linejoin: round;
      }

      .st3, .st4, .st5, .st6, .st7, .st8, .st9 {
        stroke-miterlimit: 1;
      }

      .st3, .st1, .st7, .st10 {
        display: none;
      }

      .st3, .st6 {
        fill: #93a2ac;
      }

      .st3, .st6, .st9 {
        stroke: #000;
      }

      .st4, .st1, .st7, .st2, .st9 {
        fill: none;
      }

      .st4, .st7, .st8 {
        stroke: red;
      }

      .st11 {
        fill: #0b377e;
      }

      .st12 {
        fill: #fff;
      }

      .st5 {
        fill: #d4d4d4;
        stroke: #d4d4d4;
        stroke-width: 2px;
      }

      .st8 {
        fill: #39b54a;
      }
    </style>
  </defs>
  <g
     id="flask"
     style="fill:#ffffff;fill-opacity:1">
    <circle
       class="st11"
       cx="180"
       cy="320"
       r="180"
       id="circle72"
       style="fill:#ffffff;fill-opacity:1" />
    <rect
       class="st11"
       x="120"
       y="24"
       width="120"
       height="128"
       id="rect72"
       style="fill:#ffffff;fill-opacity:1" />
    <path
       class="st11"
       d="M249.57,153.94c-7.62-2.94-9.57-5.91-9.57-15.35v11.66l9.57,3.69Z"
       id="path73"
       style="fill:#ffffff;fill-opacity:1" />
    <path
       class="st11"
       d="M110.43,153.94c7.62-2.94,9.57-5.91,9.57-15.35v11.66l-9.57,3.69Z"
       id="path74"
       style="fill:#ffffff;fill-opacity:1" />
    <rect
       class="st11"
       x="116"
       width="128"
       height="24"
       id="rect74"
       style="fill:#ffffff;fill-opacity:1" />
  </g>
  <g
     id="g100"
     inkscape:label="Negative"
     style="fill:#0b377e;fill-opacity:1">
    <g
       id="sprocket"
       style="fill:#0b377e;fill-opacity:1">
      <path
         class="st12"
         d="M324.88,314.72h-.04c-2.52.26-4.75-.4-6.68-2-1.97-1.56-3.08-3.6-3.35-6.12-.26-2.52.4-4.77,1.99-6.73,1.56-1.93,3.61-3.03,6.13-3.29h.06c-.34-1.99-.71-3.99-1.13-5.97v-.04c-.42-1.97-.88-3.93-1.39-5.89-2.41.78-4.72.59-6.95-.57-2.25-1.12-3.76-2.88-4.54-5.29s-.6-4.74.55-7c1.13-2.21,2.9-3.71,5.31-4.5-1.49-3.78-3.13-7.47-4.91-11.06h-.02c-2.2,1.27-4.5,1.56-6.92.89-2.43-.63-4.28-2.04-5.55-4.23-1.27-2.2-1.57-4.52-.92-6.96.64-2.4,2.06-4.23,4.26-5.5.01,0,.02,0,.04-.02-2.24-3.38-4.62-6.65-7.12-9.8-.01,0-.02.02-.03.03-1.88,1.7-4.08,2.47-6.58,2.31-2.51-.11-4.61-1.1-6.3-2.99s-2.48-4.09-2.35-6.62c.13-2.48,1.14-4.57,3.02-6.27,0,0,.02-.02.03-.02-2.89-2.83-5.9-5.53-9-8.1,0,0-.01.02-.02.03-1.49,2.05-3.48,3.26-5.96,3.63-2.47.42-4.74-.12-6.79-1.61-2.05-1.49-3.27-3.49-3.67-5.99-.39-2.45.16-4.71,1.65-6.76l.02-.02c-3.41-2.16-6.91-4.17-10.49-6.05v.02c-1.03,2.32-2.72,3.91-5.07,4.79-2.33.92-4.66.87-6.97-.16-2.32-1.03-3.93-2.73-4.84-5.09-.89-2.32-.82-4.64.21-6.95,0,0,0-.02,0-.03-3.78-1.41-7.62-2.66-11.52-3.75v.04c-.53,2.48-1.85,4.39-3.97,5.74-2.09,1.39-4.38,1.82-6.86,1.29-2.48-.53-4.41-1.85-5.79-3.98-1.35-2.08-1.77-4.37-1.24-6.85,0-.02,0-.04,0-.06-2-.3-4.01-.55-6.03-.77v.02c-1.99-.21-4-.38-6.02-.5,0,2.53-.9,4.68-2.69,6.43-1.76,1.79-3.9,2.69-6.44,2.69s-4.7-.9-6.49-2.69-2.64-3.9-2.64-6.44c-4.06.25-8.08.67-12.04,1.25v.02c.53,2.48.1,4.76-1.29,6.86-1.35,2.12-3.26,3.44-5.74,3.97-2.48.53-4.78.1-6.91-1.28-2.08-1.35-3.39-3.27-3.92-5.75v-.04c-3.91,1.09-7.75,2.34-11.52,3.74,0,0,0,.03.02.04,1.03,2.32,1.09,4.64.16,6.97-.88,2.35-2.47,4.04-4.79,5.07-2.32,1.03-4.66,1.09-7.02.18-2.32-.89-4-2.49-5.03-4.81,0,0,0-.02-.01-.04-3.59,1.88-7.08,3.9-10.49,6.06,0,0,.01.02.02.03,1.49,2.05,2.03,4.31,1.61,6.79-.37,2.48-1.58,4.47-3.63,5.96s-4.33,2.04-6.83,1.64c-2.45-.39-4.43-1.61-5.92-3.66,0,0,0-.02-.01-.02-3.11,2.58-6.11,5.28-8.99,8.11h.01c1.88,1.71,2.88,3.81,2.99,6.31.16,2.5-.62,4.7-2.31,6.58-1.7,1.88-3.81,2.89-6.34,3.02-2.48.13-4.66-.65-6.55-2.35,0,0-.01,0-.02-.02-2.51,3.16-4.88,6.43-7.13,9.79,0,0,.03,0,.04.02,2.2,1.27,3.61,3.12,4.23,5.55.67,2.42.38,4.72-.89,6.92s-3.12,3.62-5.57,4.28c-2.4.64-4.7.33-6.89-.94-.02-.01-.03-.02-.05-.03-.9,1.81-1.77,3.64-2.59,5.5h.02c-.82,1.84-1.6,3.7-2.34,5.58,2.41.78,4.17,2.3,5.29,4.54,1.16,2.22,1.35,4.54.57,6.95s-2.3,4.19-4.56,5.34c-2.21,1.13-4.53,1.3-6.94.52-1.02,3.94-1.86,7.89-2.53,11.83h.02c2.52.26,4.56,1.38,6.12,3.35,1.6,1.93,2.26,4.16,2,6.68s-1.38,4.58-3.35,6.17c-1.93,1.56-4.16,2.21-6.68,1.95h-.04c-.17,4.05-.17,8.1,0,12.11h.05c2.52-.26,4.75.4,6.68,2,1.97,1.56,3.08,3.6,3.35,6.12s-.4,4.77-1.99,6.73c-1.56,1.93-3.61,3.03-6.13,3.29h-.04c.68,3.99,1.52,7.94,2.52,11.85,0,0,.02,0,.03-.01,2.41-.78,4.73-.59,6.95.57,2.25,1.12,3.76,2.88,4.54,5.29.78,2.41.6,4.74-.55,7-1.13,2.21-2.9,3.71-5.31,4.5h-.03c1.49,3.75,3.14,7.44,4.93,11.06,0,0,0,0,.02-.01,2.2-1.27,4.5-1.56,6.92-.89,2.43.63,4.28,2.04,5.55,4.23,1.27,2.2,1.57,4.52.92,6.96-.64,2.4-2.06,4.23-4.26,5.5,0,0-.02,0-.03.01,2.23,3.36,4.6,6.63,7.11,9.8.01,0,.02-.02.03-.03,1.88-1.7,4.08-2.47,6.58-2.31,2.51.11,4.61,1.1,6.3,2.99,1.7,1.88,2.48,4.09,2.35,6.62-.13,2.48-1.14,4.57-3.02,6.27,0,.01-.03.02-.05.04,1.44,1.42,2.92,2.8,4.43,4.16v.02c1.5,1.34,3.03,2.66,4.59,3.95,1.49-2.05,3.47-3.26,5.95-3.63,2.47-.42,4.74.12,6.79,1.61s3.27,3.49,3.67,5.99c.39,2.45-.16,4.71-1.65,6.76,3.43,2.18,6.93,4.21,10.47,6.07v-.02c1.03-2.32,2.72-3.91,5.07-4.79,2.33-.92,4.66-.87,6.97.16,2.32,1.03,3.93,2.73,4.84,5.09.89,2.32.82,4.64-.21,6.95,0,.01,0,.02-.02.04,3.8,1.42,7.65,2.67,11.52,3.75v-.05c.53-2.48,1.85-4.39,3.97-5.74,2.09-1.39,4.38-1.82,6.86-1.29s4.41,1.85,5.79,3.98c1.35,2.08,1.77,4.37,1.24,6.85v.04c4,.59,8.02,1.01,12.05,1.26v-.04c0-2.53.9-4.68,2.69-6.44,1.76-1.79,3.9-2.69,6.44-2.69s4.7.9,6.49,2.69,2.64,3.9,2.64,6.44v.03c4.03-.26,8.05-.69,12.04-1.27v-.02c-.53-2.48-.1-4.76,1.29-6.86,1.35-2.12,3.26-3.44,5.74-3.97,2.48-.53,4.78-.1,6.91,1.28,2.08,1.35,3.39,3.27,3.92,5.75v.03c3.89-1.08,7.73-2.33,11.52-3.73,0-.01,0-.03-.02-.04-1.03-2.32-1.09-4.64-.16-6.97.88-2.35,2.47-4.04,4.79-5.07,2.32-1.03,4.66-1.09,7.02-.18,2.32.89,4,2.49,5.03,4.81,0,.02,0,.04.02.06,1.79-.94,3.57-1.91,5.33-2.92l-.03-.02c1.74-1.01,3.46-2.05,5.17-3.14-1.49-2.05-2.02-4.31-1.61-6.78.37-2.48,1.58-4.47,3.63-5.96,2.05-1.49,4.33-2.04,6.83-1.64,2.45.39,4.43,1.61,5.92,3.66,3.14-2.59,6.14-5.29,9.01-8.08h-.01c-1.88-1.71-2.88-3.81-2.99-6.31-.16-2.5.62-4.7,2.31-6.58,1.7-1.88,3.81-2.89,6.34-3.02,2.48-.13,4.66.65,6.55,2.35.01,0,.02.02.03.03,2.52-3.18,4.9-6.45,7.12-9.8-.01,0-.03-.01-.04-.02-2.2-1.27-3.61-3.12-4.23-5.55-.67-2.42-.38-4.72.89-6.92s3.12-3.62,5.57-4.28c2.4-.64,4.7-.33,6.89.94.01,0,.02.01.03.02,1.8-3.63,3.44-7.32,4.92-11.07h-.03c-2.41-.78-4.17-2.3-5.29-4.54-1.16-2.22-1.35-4.54-.57-6.95s2.3-4.19,4.56-5.34c2.21-1.13,4.53-1.3,6.94-.52h.03c1-3.91,1.83-7.87,2.51-11.84h-.02c-2.52-.26-4.56-1.38-6.12-3.34-1.6-1.94-2.26-4.16-2-6.68s1.38-4.58,3.35-6.17c1.93-1.56,4.16-2.21,6.68-1.95h.03c.17-4.03.17-8.07,0-12.11h0ZM217.06,206.5h0c23.82,7.77,45,22.9,60.03,43.61,7.27,9.75-27.16,6.16-42.23-5-15.27-11.31-29.26-42.67-17.79-38.61h0ZM180,200.67c41.17,0,35.05,59.7,25.61,72.7l-25.62,35.25-25.6-35.25c-9.44-13-15.56-72.7,25.61-72.7ZM82.93,250.11c14.75-20.26,35.68-35.72,60.02-43.61,11.52-3.9-2.54,27.74-17.8,38.62-15.26,10.88-49.63,14.64-42.22,4.99ZM82.95,391.16h0c-14.71-20.3-22.94-44.98-22.93-70.57-.14-12.16,25.6,10.98,31.23,28.87,5.71,18.12-1.41,51.72-8.3,41.7ZM65.93,283.55h-.01c12.73-39.15,67.62-14.89,77.06-1.89l25.61,35.25-41.43,13.46c-15.28,4.96-73.95-7.67-61.23-46.82h0ZM109.5,417.64h0c-33.31-24.19,6.73-68.9,22.01-73.86l41.44-13.46v43.56c0,16.07-30.15,67.96-63.45,43.76h0ZM217.1,434.71c-23.84,7.72-49.86,7.92-74.19,0-11.61-3.62,18.35-20.95,37.1-20.78,19,.17,48.75,17.33,37.09,20.78ZM250.5,417.65h0c-33.3,24.19-63.45-27.7-63.45-43.77v-43.57l41.44,13.47c15.28,4.96,55.32,49.67,22.01,73.87ZM232.84,330.37l-41.43-13.47,25.61-35.24c9.44-13,64.33-37.26,77.06,1.89h-.01c12.72,39.15-45.95,51.78-61.23,46.82h0ZM277.04,391.15c-7.03,9.92-14.25-23.93-8.3-41.71s31.55-41.01,31.22-28.85h.01c-.03,25.06-7.87,49.87-22.93,70.56h0Z"
         id="path75"
         style="fill:#0b377e;fill-opacity:1" />
      <circle
         class="st12"
         cx="180"
         cy="320.67"
         r="30"
         id="circle75"
         style="fill:#0b377e;fill-opacity:1" />
    </g>
    <g
       id="bubbles"
       style="fill:#0b377e;fill-opacity:1">
      <circle
         class="st12"
         cx="195.2"
         cy="139.41"
         r="14"
         id="circle76"
         style="fill:#0b377e;fill-opacity:1" />
      <circle
         class="st12"
         cx="158"
         cy="120"
         r="10"
         id="circle77"
         style="fill:#0b377e;fill-opacity:1" />
      <circle
         class="st12"
         cx="152"
         cy="79"
         r="14"
         id="circle78"
         style="fill:#0b377e;fill-opacity:1" />
      <circle
         class="st12"
         cx="202"
         cy="94"
         r="8"
         id="circle79"
         style="fill:#0b377e;fill-opacity:1" />
      <circle
         class="st12"
         cx="190.5"
         cy="47.5"
         r="16"
         id="circle80"
         style="fill:#0b377e;fill-opacity:1" />
    </g>
  </g>
</svg>
