<?xml version="1.0" encoding="UTF-8"?>
<svg xmlns="http://www.w3.org/2000/svg" version="1.1" viewBox="0 0 360 500">
  <!-- Generator: Adobe Illustrator 29.8.1, SVG Export Plug-In . SVG Version: 2.1.1 Build 2)  -->
  <defs>
    <style>
      .st0 {
        fill: aqua;
      }

      .st0, .st1, .st2 {
        stroke: #b00000;
        stroke-linecap: round;
        stroke-linejoin: round;
      }

      .st3, .st4, .st5, .st6, .st7, .st8, .st9 {
        stroke-miterlimit: 1;
      }

      .st3, .st1, .st7, .st10 {
        display: none;
      }

      .st3, .st6 {
        fill: #93a2ac;
      }

      .st3, .st6, .st9 {
        stroke: #000;
      }

      .st4, .st1, .st7, .st2, .st9 {
        fill: none;
      }

      .st4, .st7, .st8 {
        stroke: red;
      }

      .st11 {
        fill: #0b377e;
      }

      .st12 {
        fill: #fff;
      }

      .st5 {
        fill: #d4d4d4;
        stroke: #d4d4d4;
        stroke-width: 2px;
      }

      .st8 {
        fill: #39b54a;
      }
    </style>
  </defs>
  <g id="Layer_1" class="st10">
    <g id="sprocket_x5F_to_x5F_split">
      <path class="st0" d="M252.48,385.64c1.74-1.01,3.46-2.05,5.17-3.14-1.49-2.05-2.02-4.31-1.61-6.78.37-2.48,1.58-4.47,3.63-5.96s4.33-2.04,6.83-1.64c2.45.39,4.43,1.61,5.92,3.66,3.14-2.59,6.14-5.29,9.01-8.08h-.01c-1.88-1.71-2.88-3.81-2.99-6.31-.16-2.5.62-4.7,2.31-6.58,1.7-1.88,3.81-2.89,6.34-3.02,2.48-.13,4.66.65,6.55,2.35.01,0,.02.02.03.03,2.52-3.18,4.9-6.45,7.12-9.8-.01,0-.03-.01-.04-.02-2.2-1.27-3.61-3.12-4.23-5.55-.67-2.42-.38-4.72.89-6.92s3.12-3.62,5.57-4.28c2.4-.64,4.7-.33,6.89.94.01,0,.02.01.03.02,1.8-3.63,3.44-7.32,4.92-11.07h-.03c-2.41-.78-4.17-2.3-5.29-4.54-1.16-2.22-1.35-4.54-.57-6.95s2.3-4.19,4.56-5.34c2.21-1.13,4.53-1.3,6.94-.52h.03c1-3.91,1.83-7.87,2.51-11.84h-.02c-2.52-.26-4.56-1.38-6.12-3.34-1.6-1.94-2.26-4.16-2-6.68s1.38-4.58,3.35-6.17c1.93-1.56,4.16-2.21,6.68-1.95h.03c.17-4.03.17-8.07,0-12.11h-.04c-2.52.26-4.75-.4-6.68-2-1.97-1.56-3.08-3.6-3.35-6.12-.26-2.52.4-4.77,1.99-6.73,1.56-1.93,3.61-3.03,6.13-3.29h.06c-.34-1.99-.71-3.99-1.13-5.97v-.04c-.42-1.97-.88-3.93-1.39-5.89-2.41.78-4.72.59-6.95-.57-2.25-1.12-3.76-2.88-4.54-5.29s-.6-4.74.55-7c1.13-2.21,2.9-3.71,5.31-4.5-1.49-3.78-3.13-7.47-4.91-11.06h-.02c-2.2,1.27-4.5,1.56-6.92.89-2.43-.63-4.28-2.04-5.55-4.23-1.27-2.2-1.57-4.52-.92-6.96.64-2.4,2.06-4.23,4.26-5.5.01,0,.02,0,.04-.02-2.24-3.38-4.62-6.65-7.12-9.8-.01,0-.02.02-.03.03-1.88,1.7-4.08,2.47-6.58,2.31-2.51-.11-4.61-1.1-6.3-2.99s-2.48-4.09-2.35-6.62c.13-2.48,1.14-4.57,3.02-6.27,0,0,.02-.02.03-.02-2.89-2.83-5.9-5.53-9-8.1,0,0-.01.02-.02.03-1.49,2.05-3.48,3.26-5.96,3.63-2.47.42-4.74-.12-6.79-1.61-2.05-1.49-3.27-3.49-3.67-5.99-.39-2.45.16-4.71,1.65-6.76,0,0,.01,0,.02-.02-3.41-2.16-6.91-4.17-10.49-6.05v.02c-1.03,2.32-2.72,3.91-5.07,4.79-2.33.92-4.66.87-6.97-.16-2.32-1.03-3.93-2.73-4.84-5.09-.89-2.32-.82-4.64.21-6.95v-.03c-3.78-1.41-7.62-2.66-11.52-3.75v.04c-.53,2.48-1.85,4.39-3.97,5.74-2.09,1.39-4.38,1.82-6.86,1.29s-4.41-1.85-5.79-3.98c-1.35-2.08-1.77-4.37-1.24-6.85v-.06c-2-.3-4.01-.55-6.03-.77v.02c-1.99-.21-4-.38-6.02-.5,0,2.53-.9,4.68-2.69,6.43-1.76,1.79-3.9,2.69-6.44,2.69s-4.7-.9-6.49-2.69c-1.76-1.76-2.64-3.9-2.64-6.44-4.06.25-8.08.67-12.04,1.25v.02c.53,2.48.1,4.76-1.29,6.86-1.35,2.12-3.26,3.44-5.74,3.97-2.48.53-4.78.1-6.91-1.28-2.08-1.35-3.39-3.27-3.92-5.75v-.04c-3.91,1.09-7.75,2.34-11.52,3.74,0,.01,0,.03.02.04,1.03,2.32,1.09,4.64.16,6.97-.88,2.35-2.47,4.04-4.79,5.07s-4.66,1.09-7.02.18c-2.32-.89-4-2.49-5.03-4.81,0,0,0-.02-.01-.04-3.59,1.88-7.08,3.9-10.49,6.06,0,0,.01.02.02.03,1.49,2.05,2.03,4.31,1.61,6.79-.37,2.48-1.58,4.47-3.63,5.96-2.05,1.49-4.33,2.04-6.83,1.64-2.45-.39-4.43-1.61-5.92-3.66,0,0,0-.02-.01-.02-3.11,2.58-6.11,5.28-8.99,8.11h.01c1.88,1.71,2.88,3.81,2.99,6.31.16,2.5-.62,4.7-2.31,6.58-1.7,1.88-3.81,2.89-6.34,3.02-2.48.13-4.66-.65-6.55-2.35,0,0-.01,0-.02-.02-2.51,3.16-4.88,6.43-7.13,9.79,0,0,.03,0,.04.02,2.2,1.27,3.61,3.12,4.23,5.55.67,2.42.38,4.72-.89,6.92s-3.12,3.62-5.57,4.28c-2.4.64-4.7.33-6.89-.94-.02,0-.03-.02-.05-.03-.9,1.81-1.77,3.64-2.59,5.5h.02c-.82,1.84-1.6,3.7-2.34,5.58,2.41.78,4.17,2.3,5.29,4.54,1.16,2.22,1.35,4.54.57,6.95s-2.3,4.19-4.56,5.34c-2.21,1.13-4.53,1.3-6.94.52-1.02,3.94-1.86,7.89-2.53,11.83h.02c2.52.26,4.56,1.38,6.12,3.35,1.6,1.93,2.26,4.16,2,6.68-.26,2.52-1.38,4.58-3.35,6.17-1.93,1.56-4.16,2.21-6.68,1.95h-.04c-.17,4.05-.17,8.1,0,12.11h.05c2.52-.26,4.75.4,6.68,2,1.97,1.56,3.08,3.6,3.35,6.12s-.4,4.77-1.99,6.73c-1.56,1.93-3.61,3.03-6.13,3.29h-.04c.68,3.99,1.52,7.94,2.52,11.85,0,0,.02,0,.03-.01,2.41-.78,4.73-.59,6.95.57,2.25,1.12,3.76,2.88,4.54,5.29.78,2.41.6,4.74-.55,7-1.13,2.21-2.9,3.71-5.31,4.5h-.03c1.49,3.75,3.14,7.44,4.93,11.06h.02c2.2-1.28,4.5-1.57,6.92-.9,2.43.63,4.28,2.04,5.55,4.23,1.27,2.2,1.57,4.52.92,6.96-.64,2.4-2.06,4.23-4.26,5.5,0,0-.02,0-.03.01,2.23,3.36,4.6,6.63,7.11,9.8.01,0,.02-.02.03-.03,1.88-1.7,4.08-2.47,6.58-2.31,2.51.11,4.61,1.1,6.3,2.99,1.7,1.88,2.48,4.09,2.35,6.62-.13,2.48-1.14,4.57-3.02,6.27-.01.01-.03.02-.05.04,1.44,1.42,2.92,2.8,4.43,4.16v.02c1.5,1.34,3.03,2.66,4.59,3.95,1.49-2.05,3.47-3.26,5.95-3.63,2.47-.42,4.74.12,6.79,1.61s3.27,3.49,3.67,5.99c.39,2.45-.16,4.71-1.65,6.76,3.43,2.18,6.93,4.21,10.47,6.07v-.02c1.03-2.32,2.72-3.91,5.07-4.79,2.33-.92,4.66-.87,6.97.16,2.32,1.03,3.93,2.73,4.84,5.09.89,2.32.82,4.64-.21,6.95,0,.01,0,.02-.02.04,3.8,1.42,7.65,2.67,11.52,3.75v-.05c.53-2.48,1.85-4.39,3.97-5.74,2.09-1.39,4.38-1.82,6.86-1.29s4.41,1.85,5.79,3.98c1.35,2.08,1.77,4.37,1.24,6.85v.04c4,.59,8.02,1.01,12.05,1.26v-.04c0-2.53.9-4.68,2.69-6.44,1.76-1.79,3.9-2.69,6.44-2.69s4.7.9,6.49,2.69c1.76,1.76,2.64,3.9,2.64,6.44v.03c4.03-.26,8.05-.69,12.04-1.27v-.02c-.53-2.48-.1-4.76,1.29-6.86,1.35-2.12,3.26-3.44,5.74-3.97,2.48-.53,4.78-.1,6.91,1.28,2.08,1.35,3.39,3.27,3.92,5.75v.03c3.89-1.08,7.73-2.33,11.52-3.73,0-.01,0-.03-.02-.04-1.03-2.32-1.09-4.64-.16-6.97.88-2.35,2.47-4.04,4.79-5.07,2.32-1.03,4.66-1.09,7.02-.18,2.32.89,4,2.49,5.03,4.81,0,.02,0,.04.02.06,1.79-.94,3.57-1.91,5.33-2.92l-.03-.02h.02Z"/>
      <path class="st8" d="M82.93,189.44c14.75-20.26,35.68-35.72,60.02-43.61h0c11.52-3.9-2.54,27.74-17.8,38.62s-49.63,14.64-42.22,4.99h0Z"/>
      <path class="st8" d="M217.05,145.83c23.82,7.77,45,22.9,60.03,43.61h0c7.27,9.75-27.16,6.16-42.23-5-15.27-11.31-29.26-42.67-17.79-38.61h-.01Z"/>
      <path class="st8" d="M179.99,247.95l-25.6-35.25c-9.44-13-15.56-72.7,25.61-72.7s35.05,59.7,25.61,72.7l-25.62,35.25Z"/>
      <path class="st8" d="M82.95,330.48c-14.71-20.29-22.94-44.97-22.93-70.56h0c-.14-12.16,25.6,10.98,31.23,28.87,5.71,18.12-1.41,51.72-8.3,41.7h0Z"/>
      <path class="st8" d="M168.59,256.24l-41.43,13.46c-15.28,4.96-73.95-7.67-61.23-46.82h-.01c12.73-39.15,67.62-14.89,77.06-1.89l25.61,35.25h0Z"/>
      <path class="st8" d="M217.1,374.04c-23.84,7.72-49.86,7.92-74.19,0h0c-11.61-3.62,18.35-20.95,37.1-20.78,19,.17,48.75,17.33,37.09,20.78h0Z"/>
      <path class="st8" d="M172.95,269.65v43.56c0,16.07-30.15,67.96-63.45,43.76h0c-33.31-24.19,6.73-68.9,22.01-73.86l41.44-13.46Z"/>
      <path class="st8" d="M299.96,259.92c.33-12.16-25.27,11.07-31.22,28.85s1.27,51.63,8.3,41.71c15.06-20.69,22.9-45.5,22.93-70.56h-.01,0Z"/>
      <path class="st8" d="M187.05,269.64l41.44,13.47c15.28,4.96,55.32,49.67,22.01,73.87h0c-33.3,24.19-63.45-27.7-63.45-43.77v-43.57Z"/>
      <path class="st8" d="M191.41,256.23l25.61-35.24c9.44-13,64.33-37.26,77.06,1.89h-.01c12.72,39.15-45.95,51.78-61.23,46.82l-41.43-13.47Z"/>
      <circle class="st4" cx="180" cy="260" r="30"/>
    </g>
    <g id="sprocket_x5F_outline">
      <path class="st1" d="M325,260c0,2.02-.03,4.02-.1,6l15.1-6-15.1-6.02c.07,1.99.1,4,.1,6.02ZM170.88,115.25l.02.05v-.05h-.02c-4.05.22-8.03.6-11.95,1.12h-.1s.02.05.03.07c.53,2.5.1,4.78-1.3,6.85-1.33,2.13-3.25,3.47-5.75,4-2.47.53-4.77.1-6.9-1.3-2.07-1.33-3.37-3.25-3.9-5.75-.02-.09-.04-.18-.05-.28-.07.02-.13.03-.2.05-3.79,1.02-7.52,2.2-11.18,3.53-.1.04-.19.07-.27.1.05.12.1.23.15.35,1.03,2.33,1.1,4.67.2,7-.87,2.37-2.47,4.05-4.8,5.05-2.3,1.03-4.63,1.1-7,.2-2.33-.87-4.02-2.47-5.05-4.8-.05-.12-.1-.25-.15-.38-.08.04-.15.09-.22.12-3.44,1.84-6.81,3.83-10.12,5.98-.05.03-.1.07-.15.1.05.08.1.15.15.22,1.5,2.03,2.05,4.3,1.65,6.8-.37,2.5-1.58,4.5-3.65,6-2.03,1.47-4.32,2-6.85,1.6-2.43-.4-4.4-1.62-5.9-3.65-.02-.02-.03-.05-.05-.07l-.03.02c-3.02,2.54-5.97,5.22-8.88,8.05-.02.02-.05.05-.07.07,1.88,1.69,2.88,3.79,2.97,6.28.17,2.5-.6,4.68-2.3,6.55-1.7,1.9-3.82,2.92-6.35,3.05-2.47.13-4.65-.65-6.55-2.35l-.03-.03s-.05.05-.08.07c-2.52,3.12-4.89,6.29-7.1,9.53-.03.05-.06.1-.1.15.09.04.17.08.25.12,2.2,1.27,3.63,3.12,4.3,5.55.63,2.4.32,4.7-.95,6.9s-3.12,3.63-5.55,4.3c-2.4.63-4.7.32-6.9-.95-.13-.08-.27-.16-.4-.25-.04.1-.08.19-.12.27-1.75,3.49-3.34,7.05-4.78,10.68l14.1,14.45-19.78,3.4c-.93,3.81-1.7,7.67-2.33,11.6l16.55,11.05-18.3,7.28c-.07,2-.1,4.01-.1,6.02s.03,4.01.1,6l18.3,7.25-16.55,11.08c.62,3.94,1.4,7.81,2.33,11.62l19.78,3.4-14.1,14.42c1.45,3.62,3.05,7.17,4.8,10.65l20.15-.77-10.65,16.88c2.21,3.24,4.58,6.41,7.1,9.52l19.2-4.9-6.82,18.48c2.91,2.85,5.87,5.55,8.9,8.1l17.67-8.73-2.88,19.73c3.32,2.16,6.7,4.16,10.15,6l15.78-12.43,1.32,20.1c3.66,1.34,7.39,2.53,11.18,3.55l12.8-15.4,5.38,19.08c3.92.52,7.9.9,11.95,1.12l9.18-17.45,9.15,17.45c4.04-.23,8.01-.61,11.93-1.15l5.38-19.05,12.77,15.4c3.8-1.03,7.54-2.22,11.2-3.58l1.32-20.08,15.75,12.43c3.46-1.86,6.85-3.86,10.18-6.02l-2.88-19.7,17.62,8.7c3.03-2.57,6.01-5.28,8.92-8.15l-6.8-18.4,19.12,4.88c2.54-3.12,4.92-6.3,7.15-9.55l-10.62-16.83,20.1.77c1.76-3.5,3.36-7.06,4.8-10.7l-14.05-14.38,19.73-3.4c.93-3.81,1.71-7.69,2.32-11.62l-16.5-11.08,18.25-7.25c-.23,6.26-.81,12.36-1.75,18.33l13.3,8.92-15.62,2.7c-1.49,6.09-3.38,12.02-5.68,17.77l11.05,11.32-15.85-.62c-2.77,5.52-5.93,10.87-9.48,16.05l8.58,13.57-15.73-4.02c-3.45,4.26-7.2,8.41-11.23,12.43l-1.1,1.1,5.65,15.35-14.57-7.2c-4.77,4.03-9.68,7.7-14.75,11l2.32,15.85-12.5-9.82c-5.52,2.95-11.21,5.5-17.07,7.65l-1.03,15.83-10.18-12.25c-5.89,1.6-11.94,2.82-18.15,3.65l-4.38,15.55-7.55-14.4c-3.03.17-6.1.25-9.2.25s-6.12-.08-9.12-.25l-7.57,14.4-4.38-15.52c-6.22-.85-12.27-2.07-18.18-3.67l-10.15,12.25-1.03-15.8c-5.87-2.15-11.57-4.71-17.1-7.67l-12.47,9.82,2.32-15.82c-5.09-3.3-10.02-6.96-14.8-11l-14.53,7.17,5.62-15.27c-.39-.39-.78-.78-1.18-1.17-4.02-4.01-7.75-8.15-11.2-12.4l-15.65,4,8.55-13.52c-3.56-5.2-6.73-10.57-9.5-16.1l-15.8.62,11-11.27c-2.29-5.77-4.18-11.72-5.67-17.82l-15.67-2.7,13.35-8.92c-.94-5.96-1.52-12.07-1.75-18.33l-15.1-6,15.1-6.02c.23-6.25.81-12.36,1.75-18.33l-13.35-8.9,15.67-2.7c1.49-6.12,3.38-12.07,5.67-17.85l-11-11.3M196.75,100.85l4.38,15.55c6.21.83,12.26,2.05,18.15,3.65l10.18-12.25,1.03,15.8c5.87,2.15,11.57,4.7,17.1,7.65l12.47-9.85-2.32,15.82c5.09,3.3,10.02,6.97,14.8,11l14.52-7.18-5.62,15.27c.36.36.71.71,1.08,1.07,4.05,4.06,7.82,8.23,11.3,12.53l15.65-3.98-8.55,13.53c3.55,5.2,6.7,10.55,9.48,16.07l15.83-.65-11.05,11.33c2.29,5.78,4.18,11.72,5.68,17.82l15.62,2.7-13.3,8.9c.94,5.96,1.52,12.07,1.75,18.33l-18.25-7.28,16.5-11.05c-.62-3.93-1.4-7.8-2.32-11.6l-19.73-3.4,14.05-14.42c-1.44-3.63-3.03-7.18-4.77-10.68l-20.12.8,10.65-16.88c-2.22-3.24-4.58-6.43-7.1-9.55l-19.2,4.88,6.82-18.48c-2.91-2.85-5.87-5.55-8.9-8.1l-17.67,8.72,2.88-19.72c-3.31-2.15-6.7-4.14-10.15-5.97l-15.77,12.45-1.32-20.1c-3.67-1.35-7.4-2.53-11.2-3.55l-12.77,15.35-5.38-19c-3.92-.53-7.91-.92-11.98-1.15,0,2.53-.9,4.68-2.7,6.45-.4.41-.83.77-1.27,1.08-1.49,1.08-3.22,1.62-5.18,1.62s-3.67-.53-5.18-1.6c-.44-.32-.87-.68-1.27-1.1-1.76-1.76-2.64-3.89-2.65-6.4"/>
      <path class="st2" d="M195.18,115.8c-2-.21-4.01-.38-6.03-.5,0,2.53-.9,4.68-2.69,6.43-1.76,1.79-3.9,2.69-6.44,2.69s-4.7-.9-6.49-2.69c-1.76-1.76-2.64-3.9-2.64-6.44-4.06.25-8.08.67-12.04,1.25v.02c.53,2.48.1,4.76-1.29,6.86-1.35,2.12-3.26,3.44-5.74,3.97-2.48.53-4.78.1-6.91-1.28-2.08-1.35-3.39-3.27-3.92-5.75v-.04c-3.91,1.09-7.75,2.34-11.52,3.74,0,.01,0,.03.02.04,1.03,2.32,1.09,4.64.16,6.97-.88,2.35-2.47,4.04-4.79,5.07s-4.66,1.09-7.02.18c-2.32-.89-4-2.49-5.03-4.81,0,0,0-.02-.01-.04-3.59,1.88-7.08,3.9-10.49,6.06,0,0,.01.02.02.03,1.49,2.05,2.03,4.31,1.61,6.79-.37,2.48-1.58,4.47-3.63,5.96-2.05,1.49-4.33,2.04-6.83,1.64-2.45-.39-4.43-1.61-5.92-3.66,0,0,0-.02-.01-.02-3.11,2.58-6.11,5.28-8.99,8.11h.01c1.88,1.71,2.88,3.81,2.99,6.31.16,2.5-.62,4.7-2.31,6.58-1.7,1.88-3.81,2.89-6.34,3.02-2.48.13-4.66-.65-6.55-2.35,0,0-.01,0-.02-.02-2.51,3.16-4.88,6.43-7.13,9.79,0,0,.03,0,.04.02,2.2,1.27,3.61,3.12,4.23,5.55.67,2.42.38,4.72-.89,6.92s-3.12,3.62-5.57,4.28c-2.4.64-4.7.33-6.89-.94-.02,0-.03-.02-.05-.03-.9,1.81-1.77,3.64-2.59,5.5"/>
      <path class="st2" d="M47.51,201.01c-.82,1.84-1.6,3.7-2.34,5.58,2.41.78,4.17,2.3,5.29,4.54,1.16,2.22,1.35,4.54.57,6.95s-2.3,4.19-4.56,5.34c-2.21,1.13-4.53,1.3-6.94.52-1.02,3.94-1.86,7.89-2.53,11.83h.02c2.52.26,4.56,1.38,6.12,3.35,1.6,1.93,2.26,4.16,2,6.68-.26,2.52-1.38,4.58-3.35,6.17-1.93,1.56-4.16,2.21-6.68,1.95h-.04c-.17,4.05-.17,8.1,0,12.11h.05c2.52-.26,4.75.4,6.68,2,1.97,1.56,3.08,3.6,3.35,6.12s-.4,4.77-1.99,6.73c-1.56,1.93-3.61,3.03-6.13,3.29h-.04c.68,3.99,1.52,7.94,2.52,11.85,0,0,.02,0,.03-.01,2.41-.78,4.73-.59,6.95.57,2.25,1.12,3.76,2.88,4.54,5.29.78,2.41.6,4.74-.55,7-1.13,2.21-2.9,3.71-5.31,4.5h-.03c1.49,3.75,3.14,7.44,4.93,11.06h.02c2.2-1.28,4.5-1.57,6.92-.9,2.43.63,4.28,2.04,5.55,4.23,1.27,2.2,1.57,4.52.92,6.96-.64,2.4-2.06,4.23-4.26,5.5,0,0-.02,0-.03.01,2.23,3.36,4.6,6.63,7.11,9.8.01,0,.02-.02.03-.03,1.88-1.7,4.08-2.47,6.58-2.31,2.51.11,4.61,1.1,6.3,2.99,1.7,1.88,2.48,4.09,2.35,6.62-.13,2.48-1.14,4.57-3.02,6.27-.01.01-.03.02-.05.04,1.44,1.42,2.92,2.8,4.43,4.16"/>
      <path class="st2" d="M82.93,367.79c1.49,1.34,3.02,2.66,4.58,3.95,1.49-2.05,3.47-3.26,5.95-3.63,2.47-.42,4.74.12,6.79,1.61s3.27,3.49,3.67,5.99c.39,2.45-.16,4.71-1.65,6.76,3.43,2.18,6.93,4.21,10.47,6.07v-.02c1.03-2.32,2.72-3.91,5.07-4.79,2.33-.92,4.66-.87,6.97.16,2.32,1.03,3.93,2.73,4.84,5.09.89,2.32.82,4.64-.21,6.95,0,.01,0,.02-.02.04,3.8,1.42,7.65,2.67,11.52,3.75v-.05c.53-2.48,1.85-4.39,3.97-5.74,2.09-1.39,4.38-1.82,6.86-1.29s4.41,1.85,5.79,3.98c1.35,2.08,1.77,4.37,1.24,6.85v.04c4,.59,8.02,1.01,12.05,1.26v-.04c0-2.53.9-4.68,2.69-6.44,1.76-1.79,3.9-2.69,6.44-2.69s4.7.9,6.49,2.69c1.76,1.76,2.64,3.9,2.64,6.44v.03c4.03-.26,8.05-.69,12.04-1.27v-.02c-.53-2.48-.1-4.76,1.29-6.86,1.35-2.12,3.26-3.44,5.74-3.97,2.48-.53,4.78-.1,6.91,1.28,2.08,1.35,3.39,3.27,3.92,5.75v.03c3.89-1.08,7.73-2.33,11.52-3.73,0-.01,0-.03-.02-.04-1.03-2.32-1.09-4.64-.16-6.97.88-2.35,2.47-4.04,4.79-5.07,2.32-1.03,4.66-1.09,7.02-.18,2.32.89,4,2.49,5.03,4.81,0,.02,0,.04.02.06,1.79-.94,3.57-1.91,5.33-2.92"/>
      <path class="st2" d="M252.48,385.64c1.74-1.01,3.46-2.05,5.17-3.14-1.49-2.05-2.02-4.31-1.61-6.78.37-2.48,1.58-4.47,3.63-5.96s4.33-2.04,6.83-1.64c2.45.39,4.43,1.61,5.92,3.66,3.14-2.59,6.14-5.29,9.01-8.08h-.01c-1.88-1.71-2.88-3.81-2.99-6.31-.16-2.5.62-4.7,2.31-6.58,1.7-1.88,3.81-2.89,6.34-3.02,2.48-.13,4.66.65,6.55,2.35.01,0,.02.02.03.03,2.52-3.18,4.9-6.45,7.12-9.8-.01,0-.03-.01-.04-.02-2.2-1.27-3.61-3.12-4.23-5.55-.67-2.42-.38-4.72.89-6.92s3.12-3.62,5.57-4.28c2.4-.64,4.7-.33,6.89.94.01,0,.02.01.03.02,1.8-3.63,3.44-7.32,4.92-11.07h-.03c-2.41-.78-4.17-2.3-5.29-4.54-1.16-2.22-1.35-4.54-.57-6.95s2.3-4.19,4.56-5.34c2.21-1.13,4.53-1.3,6.94-.52h.03c1-3.91,1.83-7.87,2.51-11.84h-.02c-2.52-.26-4.56-1.38-6.12-3.34-1.6-1.94-2.26-4.16-2-6.68s1.38-4.58,3.35-6.17c1.93-1.56,4.16-2.21,6.68-1.95h.03c.17-4.03.17-8.07,0-12.11h-.04c-2.52.26-4.75-.4-6.68-2-1.97-1.56-3.08-3.6-3.35-6.12-.26-2.52.4-4.77,1.99-6.73,1.56-1.93,3.61-3.03,6.13-3.29h.06c-.34-1.99-.71-3.99-1.13-5.97"/>
      <path class="st2" d="M321.86,229.9c-.42-1.97-.88-3.93-1.39-5.89-2.41.78-4.72.59-6.95-.57-2.25-1.12-3.76-2.88-4.54-5.29s-.6-4.74.55-7c1.13-2.21,2.9-3.71,5.31-4.5-1.49-3.78-3.13-7.47-4.91-11.06h-.02c-2.2,1.27-4.5,1.56-6.92.89-2.43-.63-4.28-2.04-5.55-4.23-1.27-2.2-1.57-4.52-.92-6.96.64-2.4,2.06-4.23,4.26-5.5.01,0,.02,0,.04-.02-2.24-3.38-4.62-6.65-7.12-9.8-.01,0-.02.02-.03.03-1.88,1.7-4.08,2.47-6.58,2.31-2.51-.11-4.61-1.1-6.3-2.99s-2.48-4.09-2.35-6.62c.13-2.48,1.14-4.57,3.02-6.27,0,0,.02-.02.03-.02-2.89-2.83-5.9-5.53-9-8.1,0,0-.01.02-.02.03-1.49,2.05-3.48,3.26-5.96,3.63-2.47.42-4.74-.12-6.79-1.61-2.05-1.49-3.27-3.49-3.67-5.99-.39-2.45.16-4.71,1.65-6.76,0,0,.01,0,.02-.02-3.41-2.16-6.91-4.17-10.49-6.05v.02c-1.03,2.32-2.72,3.91-5.07,4.79-2.33.92-4.66.87-6.97-.16-2.32-1.03-3.93-2.73-4.84-5.09-.89-2.32-.82-4.64.21-6.95v-.03c-3.78-1.41-7.62-2.66-11.52-3.75v.04c-.53,2.48-1.85,4.39-3.97,5.74-2.09,1.39-4.38,1.82-6.86,1.29s-4.41-1.85-5.79-3.98c-1.35-2.08-1.77-4.37-1.24-6.85v-.06c-2-.3-4.01-.55-6.03-.77"/>
      <g class="st10">
        <path class="st4" d="M154.39,212.7c-9.44-13-23.79-72.7,25.61-72.7"/>
        <g>
          <line class="st4" x1="154.39" y1="212.7" x2="186.3" y2="256.63"/>
          <line class="st4" x1="142.98" y1="220.99" x2="174.88" y2="264.89"/>
        </g>
        <path class="st4" d="M90.81,179.65c11.18-12.4,24.94-22.43,40.39-29.32,11.19-5.74,9.21,23.23-6.06,34.11-15.07,11.16-43.26,4.08-34.34-4.8h0Z"/>
        <path class="st4" d="M142.98,220.99c-9.44-13-61.79-45.09-77.06,1.89"/>
      </g>
      <g class="st10">
        <path class="st4" d="M127.07,269.75c-15.28,4.96-76.49.16-61.23-46.82"/>
        <g>
          <line class="st4" x1="127.07" y1="269.75" x2="178.7" y2="252.98"/>
          <line class="st4" x1="131.43" y1="283.16" x2="183.04" y2="266.39"/>
        </g>
        <path class="st4" d="M75.99,320.01c-8.34-14.47-13.62-30.65-15.4-47.48-2-12.42,24.94-1.58,30.57,16.3,5.95,17.78-9.49,42.4-15.17,31.17h0Z"/>
        <path class="st4" d="M131.43,283.16c-15.28,4.96-61.98,44.83-22.01,73.87"/>
      </g>
      <g class="st10">
        <path class="st4" d="M172.88,313.37c0,16.07-23.48,72.8-63.45,43.76"/>
        <g>
          <line class="st4" x1="172.88" y1="313.37" x2="172.89" y2="259.07"/>
          <line class="st4" x1="186.98" y1="313.37" x2="186.99" y2="259.1"/>
        </g>
        <path class="st4" d="M204.9,377.47c-16.34,3.46-33.36,3.49-49.91-.03-12.43-1.93,6.2-24.21,24.95-24.04,18.75-.17,37.39,22.13,24.96,24.06h0Z"/>
        <path class="st4" d="M186.98,313.37c0,16.07,23.48,72.8,63.45,43.76"/>
      </g>
      <g class="st10">
        <path class="st4" d="M228.52,283.27c15.28,4.96,61.98,44.83,22.01,73.87"/>
        <g>
          <line class="st4" x1="228.52" y1="283.27" x2="176.89" y2="266.49"/>
          <line class="st4" x1="232.88" y1="269.86" x2="181.27" y2="253.09"/>
        </g>
        <path class="st4" d="M299.38,272.64c-1.75,16.61-6.99,32.8-15.45,47.46-5.68,11.23-21.1-13.38-15.15-31.16,5.63-17.88,32.6-28.72,30.6-16.3Z"/>
        <path class="st4" d="M232.88,269.86c15.28,4.96,76.49.16,61.23-46.82"/>
      </g>
      <g class="st10">
        <path class="st4" d="M217.09,221.06c9.44-13,61.79-45.09,77.06,1.89"/>
        <g>
          <line class="st4" x1="217.09" y1="221.06" x2="185.18" y2="264.98"/>
          <line class="st4" x1="205.69" y1="212.77" x2="173.79" y2="256.67"/>
        </g>
        <path class="st4" d="M228.88,150.38c15.25,6.8,29.04,16.79,40.36,29.36,8.92,8.87-19.25,15.94-34.32,4.78-15.27-10.88-17.24-39.88-6.05-34.14h.01Z"/>
        <path class="st4" d="M205.69,212.77c9.44-13,23.79-72.7-25.61-72.7"/>
      </g>
      <g>
        <path class="st4" d="M82.93,189.44c14.75-20.26,35.68-35.72,60.02-43.61h0c11.52-3.9-2.54,27.74-17.8,38.62s-49.63,14.64-42.22,4.99h0Z"/>
        <path class="st4" d="M154.39,212.7c-9.44-13-15.56-72.7,25.61-72.7"/>
        <g>
          <line class="st4" x1="154.39" y1="212.7" x2="186.3" y2="256.63"/>
          <line class="st4" x1="142.98" y1="220.99" x2="174.88" y2="264.89"/>
        </g>
        <path class="st4" d="M142.98,220.99c-9.44-13-64.33-37.26-77.06,1.89"/>
      </g>
      <g>
        <path class="st4" d="M217.05,145.83c23.82,7.77,45,22.9,60.03,43.61h0c7.27,9.75-27.16,6.16-42.23-5-15.27-11.31-29.26-42.67-17.79-38.61h-.01Z"/>
        <path class="st4" d="M217.02,220.99c9.44-13,64.33-37.26,77.06,1.89"/>
        <g>
          <line class="st4" x1="217.02" y1="220.99" x2="185.1" y2="264.91"/>
          <line class="st4" x1="205.61" y1="212.7" x2="173.71" y2="256.6"/>
        </g>
        <path class="st4" d="M205.61,212.7c9.44-13,15.56-72.7-25.61-72.7"/>
      </g>
      <g>
        <path class="st4" d="M82.95,330.48c-14.71-20.29-22.94-44.97-22.93-70.56h0c-.14-12.16,25.6,10.98,31.23,28.87,5.71,18.12-1.41,51.72-8.3,41.7h0Z"/>
        <path class="st4" d="M127.16,269.7c-15.28,4.96-73.95-7.67-61.23-46.82"/>
        <g>
          <line class="st4" x1="127.16" y1="269.7" x2="178.79" y2="252.92"/>
          <line class="st4" x1="131.51" y1="283.11" x2="183.13" y2="266.34"/>
        </g>
        <path class="st4" d="M131.51,283.11c-15.28,4.96-55.32,49.67-22.01,73.87"/>
      </g>
      <g>
        <path class="st4" d="M217.1,374.04c-23.84,7.72-49.86,7.92-74.19,0h0c-11.61-3.62,18.35-20.95,37.1-20.78,19,.17,48.75,17.33,37.09,20.78h0Z"/>
        <path class="st4" d="M172.95,313.21c0,16.07-30.15,67.96-63.45,43.76"/>
        <g>
          <line class="st4" x1="172.95" y1="313.21" x2="172.95" y2="258.92"/>
          <line class="st4" x1="187.05" y1="313.21" x2="187.05" y2="258.94"/>
        </g>
        <path class="st4" d="M187.05,313.21c0,16.07,30.15,67.96,63.45,43.76"/>
      </g>
      <g>
        <path class="st4" d="M299.97,259.92c-.03,25.06-7.87,49.87-22.93,70.56h0c-7.03,9.92-14.25-23.93-8.3-41.71s31.55-41.01,31.22-28.85h0Z"/>
        <path class="st4" d="M228.49,283.11c15.28,4.96,55.32,49.67,22.01,73.87"/>
        <g>
          <line class="st4" x1="228.49" y1="283.11" x2="176.85" y2="266.33"/>
          <line class="st4" x1="232.84" y1="269.7" x2="181.23" y2="252.92"/>
        </g>
        <path class="st4" d="M232.84,269.7c15.28,4.96,73.95-7.67,61.23-46.82"/>
      </g>
      <circle class="st4" cx="180" cy="260" r="30"/>
    </g>
    <g id="guides" class="st10">
      <path id="ref" class="st3" d="M322.43,259.81c1.99-.35,2.42-.61,2.36-1.47-.06-.81-.62-1.23-2.53-1.89-6.36-2.21-7.1-9.8-1.26-12.86,1.27-.67,2.3-1.5,2.28-1.86-.02-.4-1.01-.93-2.55-1.38-4.81-1.39-6.96-5.4-5.31-9.88.76-2.07,1.31-2.75,3-3.71,1.75-1,2.03-1.36,1.82-2.34-.22-1.04-.59-1.23-3.62-1.86-2.83-.59-3.58-.94-4.68-2.17-3.05-3.43-2.6-7.71,1.13-10.9,1.77-1.51,1.86-1.68,1.34-2.74-.5-1.02-.72-1.11-2.41-.91-2.42.28-5.54-.64-7.07-2.09-2.46-2.33-2.06-7.2.87-10.33l1.52-1.63-.69-1.35c-.69-1.34-.71-1.35-2.75-.95-1.16.22-3.08.1-4.39-.27-4.6-1.32-5.81-6.36-2.48-10.29,1.3-1.53,1.39-1.81.92-2.67-.48-.86-.82-.88-3.33-.14-3.08.9-4.83.62-7.03-1.15-2.7-2.16-2.95-6.04-.61-9.37l1.33-1.89-1.25-1.18c-1.16-1.1-1.34-1.13-2.57-.53-6.53,3.22-12.15-1.89-9.37-8.5.9-2.15.89-2.24-.45-3.19-1.13-.8-1.5-.87-2.02-.35-2.87,2.84-7.66,2.83-10.29-.02-1.97-2.15-2.38-4.13-1.45-7.1.72-2.3.7-2.63-.21-3.04-.71-.33-1.75,0-3.45,1.06-1.34.84-3.27,1.55-4.3,1.59-4.01.16-7.02-3.93-6.01-8.17.56-2.33.31-2.98-1.31-3.46-.73-.22-1.63.24-2.97,1.51-1.98,1.88-3.13,2.33-5.94,2.33-3.53,0-5.96-3.61-5.32-7.91.27-1.85.17-2.1-1.06-2.46-1.12-.32-1.5-.15-2.12,1.01-1.06,1.95-4.62,3.81-6.9,3.59-3.54-.34-5.48-3.15-5.19-7.5.11-1.54-.04-1.73-1.74-2.22-1.78-.51-1.89-.46-2.73,1.32-1.13,2.41-4.3,4.46-6.57,4.25-3.14-.3-5.61-3.38-5.49-6.85.1-2.81-2.95-2.14-4.4.96-.63,1.35-1.53,2.16-3.34,3.05-2.14,1.05-2.8,1.11-4.9.51-2.02-.58-2.65-1.04-3.72-2.72-.71-1.11-1.28-2.56-1.25-3.21.03-.79-.26-1.2-.84-1.21-.64-.02-1.08.58-1.62,2.21-1.16,3.51-4.58,5.56-8.37,4.99-2.52-.37-5.64-2.93-6.08-4.99-.25-1.18-.48-1.34-1.79-1.27-1.37.08-1.52.25-1.79,2.05-.38,2.58-1.23,3.98-3.25,5.33-3.13,2.1-7.22.57-8.79-3.29-.51-1.25-.93-1.59-2-1.63-1.15-.04-1.37.17-1.46,1.36-.17,2.49-1.07,5.36-1.95,6.28-3.07,3.16-8.16,2.07-10.25-2.19l-.63-1.28-1.69.6c-1.37.48-1.65.79-1.46,1.65.12.58-.08,2.11-.45,3.41-1.37,4.74-5.66,6.68-9.51,4.3-1.06-.65-2.18-1.72-2.5-2.36-.56-1.15-.6-1.16-2.02-.43-1.38.71-1.43.81-1,2.2.98,3.17-1.82,8.74-4.69,9.36-1.85.4-4.35-.54-5.94-2.22-.79-.84-1.5-1.54-1.57-1.56s-.77.46-1.56,1.07l-1.44,1.1.51,2.69c.6,3.16.32,4.42-1.4,6.37-2.3,2.59-6.53,2.65-9.2.12-1.1-1.04-1.22-1.05-2.16-.09-.87.89-.91,1.18-.3,2.4,2.07,4.19.62,8.44-3.24,9.56-1.87.54-4.56-.13-6.41-1.59-.53-.42-1.06-.22-1.98.75-1.18,1.25-1.22,1.4-.63,2.64,1.29,2.72,1.5,4.48.82,6.84l-.69,2.39,8.01,4.34,8.01,4.34,1.4-.69c4.2-2.08,9.11-1.75,21.69,1.48,12.77,3.28,15.44,4.5,20.87,9.57l3.99,3.72,5.79-3.23c4.7-2.62,7.64-3.91,11.76-5.16.07-.02-.15-2.13-.48-4.69-.56-4.29-.51-5.01.74-9.29,1.33-4.6,5.97-14.31,9.38-19.65,3.35-5.25,9.32-10.56,13.39-11.92,5.08-1.7,15.77-1.29,24.97.95,6.85,1.67,10.17,3.1,16.87,7.25,6.01,3.73,7.05,5.58,9.78,17.34,3.6,15.48,3.6,20.4,0,29.72-1.11,2.88-1.97,5.3-1.91,5.37.06.07,2.35,2.27,5.1,4.88,2.74,2.61,5.71,5.79,6.59,7.06l1.6,2.32,3.81-1.78c5.45-2.55,6.08-2.67,12.47-2.43,4.93.19,7.08.56,14.85,2.6,5.95,1.56,9.71,2.77,10.91,3.51,5.81,3.6,9.21,7.71,11.16,13.52,2.79,8.29,5.19,26.49,4.27,32.37-.61,3.88-2.89,8.18-6.54,12.32-2.95,3.35-3.84,3.95-13.24,8.99-11.88,6.36-13.65,6.86-18.86,5.31-2.01-.6-4.55-1.51-5.64-2.03l-1.98-.94-.85,2.96c-1.1,3.83-4.01,9.37-6.64,12.64-3.29,4.1-3.3,4.13-1.18,6.66,7.33,8.7,10.33,18,10.05,31.09-.2,9.38-2.43,16.41-6.62,20.91-5.72,6.14-25.07,15.01-32.28,14.8-3.65-.11-10.14-1.86-13.63-3.68-3.13-1.63-8.14-5.58-11.79-9.28-6.53-6.63-10.75-13.92-12.57-21.7-.77-3.27-.8-3.32-2.63-3.51-1.02-.11-5.54-1.12-10.06-2.26l-8.2-2.07-1.41,2.59c-4.65,8.51-11.96,13.91-25.09,18.53-8.53,3-11.43,3.09-18.73.6-5.79-1.97-8.67-3.82-15.32-9.87-8.43-7.66-14.41-16.3-15.49-22.37-.85-4.81-.37-8.57,1.96-15.4,4.32-12.63,10.42-22.62,15.31-25.05.97-.48,3.29-1.45,5.16-2.15l3.4-1.27-.87-2.6c-1.19-3.56-1.72-7.55-1.72-12.86v-4.49l-5.35-1.39c-6.26-1.62-8.36-2.77-14.7-8.02-12.91-10.67-17.45-19.98-15.3-31.34l.65-3.42-2.96-1.88c-6.05-3.85-17.37-10.81-18.23-11.21-1.55-.73-1.64.52-.15,2.09,3.43,3.63,2.78,8.58-1.41,10.67-1.23.61-2.93,1.05-3.78.98-1.39-.11-1.6.06-2.07,1.71-.46,1.59-.36,1.94.69,2.55,2.98,1.73,4.47,5.27,3.56,8.44-.58,2.02-4.19,4.59-6.34,4.51-1.14-.04-1.38.22-1.93,2.15-.57,1.98-.52,2.22.53,2.53.64.18,1.82.86,2.61,1.5,3.24,2.62,4.09,6.49,1.91,8.79-1.32,1.4-4.35,2.46-5.82,2.04-.77-.22-.94,0-1.05,1.35-.07.89-.19,1.81-.26,2.04-.07.24.76.68,1.85,1,2.79.8,4.85,2.63,5.46,4.85,1.07,3.91-.9,6.76-5.85,8.49-.96.34-1.12.62-.96,1.73.17,1.16.55,1.44,2.96,2.19,4.44,1.39,6.43,4.34,5.39,8.02-.55,1.94-.91,2.32-3.49,3.68l-2.88,1.51.4,1.85c.27,1.23,1.5,2.08,3.69,2.57,3.96.87,5.81,2.57,6.17,5.66.31,2.64-.72,4.36-3.61,6.06-3.42,2-3.04,2.79,1.87,3.89,3.31.74,4.05,1.07,5.18,2.35,2.59,2.92,2.02,7.03-1.38,9.86-1.45,1.21-1.61,1.52-1.26,2.53.37,1.07.57,1.15,3.12,1.22,4.09.11,7.11,2.18,7.74,5.3.43,2.17-.97,6.07-2.53,7.04-1,.62-1.02.74-.33,1.84.71,1.15.79,1.17,2.93.66,1.47-.35,3.04-.28,4.75.22,2.25.65,2.69.99,3.74,2.88,1.05,1.9,1.1,2.43.43,4.76-.42,1.44-1.22,3.1-1.78,3.69-.98,1.03-.96,1.15.71,3.02l1.73,1.95,2.04-.8c2.96-1.15,5.15-1.04,6.88.35,2.48,1.99,2.76,5.7.67,9.07-.63,1.02-.58,1.42.25,2.39.92,1.07,1.1,1.12,2.08.64,1.54-.75,5.83-1.31,7.18-.93,1.8.5,3.81,2.54,4.28,4.36.26,1.02.13,2.69-.34,4.34-.7,2.44-.67,2.74.34,3.33.9.53,1.58.37,3.6-.84,2.24-1.34,2.77-1.43,5.36-.92,4.75.95,6.22,3.39,4.87,8.08-.69,2.4-.68,2.42,1.09,3.45,1.7.99,1.83.99,2.74-.16,1.63-2.04,3.69-2.76,6.44-2.25,2.35.44,2.6.62,3.73,2.66.76,1.38,1.18,3.09,1.13,4.63-.08,2.25.04,2.47,1.45,2.88,1.27.36,1.79.17,3.03-1.1,1.87-1.91,4.97-2.95,7.04-2.36,2.71.78,4.71,4.77,3.87,7.71-.38,1.33-.05,1.55,2.6,1.77.93.08,1.7-.17,1.82-.59.44-1.52,2.82-3.6,4.73-4.14,1.54-.43,2.48-.36,4.12.32,2.58,1.07,3.77,2.89,4.05,6.16.14,1.64.44,2.37.98,2.32.43-.04,1.09.02,1.47.13.42.12.84-.3,1.05-1.04.55-1.92,3.25-4.49,5.09-4.86,2.71-.54,4.91.38,6.39,2.68.71,1.11,1.28,2.58,1.25,3.27-.03.93.29,1.35,1.25,1.62,1.88.53,2.47.19,3.51-2.06,2.8-6.03,9.56-5.94,12.03.17.68,1.68.85,1.8,2.58,1.77,1.83-.03,1.87-.07,2.37-2.44.92-4.34,4.35-6.69,8.15-5.6,1.79.51,4.09,2.62,4.81,4.41.47,1.16.81,1.42,1.62,1.23.85-.2,1.14-.77,1.78-3.51.74-3.16.83-3.31,2.96-4.48,1.81-1,2.56-1.11,4.24-.63,2.29.66,3.42,1.57,4.81,3.88.9,1.5,1.02,1.56,2.39,1.14,1.37-.42,1.43-.54,1.31-2.45-.24-3.9,1.31-6.53,4.37-7.38,2.53-.71,6.51.64,8.17,2.78l1.1,1.42,1.53-.67,1.53-.67-.49-2.72c-.64-3.53.48-5.73,3.41-6.67,2.53-.82,4.16-.33,6.51,1.94l1.88,1.82,1.75-1.02c1.72-1,1.74-1.05,1.27-2.57-2.25-7.28,4.44-12.02,9.84-6.97l1.56,1.46,1.1-.95c1.04-.89,1.05-1.06.27-2.83-1.02-2.28-1-3.9.05-6.3,1.67-3.81,5.59-5.01,9.06-2.78,2.28,1.47,2.15,1.46,3.5.04,1.16-1.22,1.15-1.28-.21-3.83-1.7-3.18-1.26-5.7,1.27-7.36,1.47-.96,1.83-.96,5.28.03,3.51,1.01,3.75,1.01,4.5-.03.44-.6,1.05-1.42,1.37-1.82.42-.53.22-1.06-.73-1.96-1.56-1.48-2.46-4.4-1.92-6.28.97-3.39,4.5-4.9,8.64-3.71,1.98.57,2.27.51,2.91-.6.42-.72.53-1.37.26-1.55-1.27-.87-3.07-3.58-3.49-5.26-.41-1.62-.32-2.14.59-3.57,1.7-2.65,3.71-3.39,7.21-2.65,2.46.52,3.03.48,3.24-.25.14-.48.49-1.19.77-1.57.33-.44.25-.76-.2-.9-.4-.11-1.42-1.31-2.27-2.65-1.36-2.15-1.49-2.76-1.07-5.04.78-4.16,3.15-5.83,7.96-5.58,1.08.05,1.52-.22,1.78-1.11.26-.92.04-1.34-1.03-1.89-.75-.39-1.99-1.67-2.76-2.84-1.24-1.9-1.32-2.38-.73-4.43.55-1.92.95-2.43,2.39-3.09.95-.44,2.78-.77,4.06-.75,2.22.04,2.35-.04,2.85-1.77.49-1.72.43-1.86-1.26-2.67-3.75-1.8-5.46-5.26-4.41-8.93.52-1.81,3.75-4,6.35-4.3,1.6-.19,1.9-.44,2.34-1.95.47-1.64.41-1.76-1.11-2.2-2.34-.67-5.24-3.59-5.79-5.83-.55-2.25.2-4.94,1.76-6.28.61-.52,2.2-1.14,3.54-1.38v-.04h0ZM149.92,185.38c-2.24,2.82-5.48,3.84-9,2.83-3.06-.88-5.01-3.04-5.55-6.14-.5-2.92-.14-4.25,1.78-6.5,2.2-2.58,4.83-3.33,8.23-2.35,2.98.86,4.35,2.15,5.49,5.15.59,1.57.02,5.79-.96,7.01h.01ZM158.48,150.17c-4.71,7.97-10.12,14.4-15.73,18.7-5,3.83-14.64,6.6-21.86,6.29-5.31-.23-14.93-2.63-16.9-4.22-3.18-2.56-2.21-4.08,7.26-11.34,11.42-8.76,21.52-13.35,38.08-17.28,6.38-1.52,8.17-1.57,10.05-.28,2.22,1.51,2.03,3.16-.9,8.13h0ZM248.89,206.65c-4.23,4.1-11.12,2.21-13.31-3.65-.44-1.19-.4-2.39.15-4.31.86-2.99,2.26-4.37,5.49-5.44,4.15-1.36,9.13,1.73,9.89,6.16.51,2.99-.19,5.27-2.23,7.25h0ZM283.36,206.91c-1.32,1.26-4.45.92-12.56-1.37-9.05-2.55-12.97-4.61-18.91-9.9-2.88-2.57-3.9-3.98-6.64-9.18-5.35-10.16-7.52-18.68-6.06-23.84.76-2.67.95-2.94,2.38-3.29,1.48-.35,1.86-.17,7.42,3.68,11.25,7.78,23.04,19.78,31.15,31.73,2,2.95,3.87,6.19,4.15,7.21.55,2,.19,3.88-.94,4.96h.01ZM93.49,262.08c4.19-.36,7.13,1.69,8.52,5.91,1.85,5.62-3.9,11.24-9.77,9.55-8.26-2.38-7.26-14.74,1.25-15.46ZM77.94,298.88c-1.9,3.91-2.48,4.71-3.91,5.36-1.97.9-4.17.42-5.6-1.24-.55-.64-1.91-4.07-3.02-7.62-3.92-12.57-5.91-25.58-5.86-38.28.05-12.29.69-14.86,3.92-15.86,1.39-.43,1.62-.36,3.33.94,4.56,3.47,14.14,18.54,16.13,25.36,1.34,4.58,1.5,6.28,1.07,11.04-.48,5.24-3.25,14.51-6.06,20.3ZM159.95,339.8c2.74-2.25,4.63-2.69,7.75-1.79,3.41.98,5.23,3.01,5.73,6.36h0c.56,3.82-.88,6.43-4.53,8.22-2.42,1.18-3.66,1.17-6.87-.06-4.84-1.85-6.08-9.44-2.08-12.74h0ZM191.65,380.77c-2.36,1.1-15.1.92-27.04-.38-5.71-.62-24.75-6.25-29.71-8.78-4.49-2.29-5.44-3.47-4.73-5.91.42-1.45,1.04-2.02,3.83-3.5,3.98-2.12,10.53-4.31,15.93-5.32,4.64-.87,13.05-.35,18.16,1.12,3.73,1.08,12.09,5.75,15.71,8.77,3.36,2.81,8.27,8.22,8.93,9.82h0c.76,1.88.34,3.52-1.07,4.18h-.01ZM252.66,308.97c-5.22-3.93-3.47-12.37,2.91-14.02,3.67-.95,8.2,1.54,9.61,5.27h0c.37.97.39,2.66.07,4.26-.44,2.18-.83,2.89-2.16,3.99-3.5,2.88-7.04,3.06-10.42.51h0ZM292.25,306.54c-5.54,14.37-20.14,36.67-24.67,37.69-1.43.32-1.69.23-3.11-1.15-1.91-1.86-3.13-6.17-3.33-11.77-.2-5.69.27-9.38,1.96-15.23,2.53-8.8,6.11-14.42,12.66-19.9,5.76-4.81,14.26-9.06,17.68-8.83,2.05.14,3.06,1.69,3.03,4.65-.02,2.31-1.59,7.7-4.23,14.54h.01Z"/>
      <g id="ref2">
        <path id="path4023" class="st5" d="M169,336.65c-4.54-.36-13.24-2.75-15.2-4.19-.75-.55-.34-2.48,4.35-20.35,2.85-10.86,5.18-20.72,5.18-21.91,0-4.2-3.36-8.87-8.01-11.15-2.61-1.28-3.42-1.42-8.05-1.4-10.82.05-36.81.63-39.3.89l-2.61.27-.61-4.23c-.33-2.32-.53-6.86-.44-10.07l.17-5.85,23.13-1.92c12.72-1.06,23.99-2.15,25.03-2.43,2.53-.68,4.93-2.78,6.08-5.3,1.15-2.52,1.25-7.77.23-11.17-.4-1.33-4.45-11.11-9.01-21.75l-8.29-19.34,1.25-.99c2.16-1.7,9.23-4.93,13.17-6.01,2.08-.57,3.83-.98,3.88-.92s.6,1.12,1.22,2.33c1.31,2.61,4.77,6.49,6.61,7.43,3.7,1.89,7.24,1.13,9.13-1.94.98-1.6,42.67,13,45.38,14.45,1.48.79,3.01-.35,5.61-4.18l2.13-3.14,5.39,5.56c2.97,3.06,5.76,6.24,6.21,7.08l.82,1.52-13.92,16.54c-15.35,18.22-17.18,20.98-17.21,25.9,0,1.56.3,3.58.68,4.49,1.49,3.54,18.41,15.62,32.99,23.56l3.16,1.72-3.29,6.38c-1.81,3.51-4.03,7.24-4.94,8.29l-1.64,1.91-8.14-4.84c-4.48-2.66-12.55-7.07-17.94-9.79-9.43-4.77-9.92-4.95-13.04-4.92-6,.07-10.89,3.5-12.99,9.12-.52,1.4-3.41,10.9-6.41,21.11-3,10.21-5.61,18.8-5.78,19.09-.2.33-1.98.39-4.99.15h0Z"/>
        <path id="path4019" class="st6" d="M184.22,402.67c-.33-1.23-1.16-2.89-1.84-3.69-1.04-1.2-1.64-1.44-3.63-1.44-2.13,0-2.57.21-4.05,1.92-.91,1.06-1.8,2.6-1.96,3.43-.24,1.18-.58,1.51-1.53,1.51s-1.31-.35-1.56-1.4c-1.1-4.69-3.35-6.51-7.56-6.1-2.31.22-2.86.51-4.55,2.42-1.06,1.19-1.92,2.5-1.92,2.92,0,.48-.29.64-.8.44-.44-.17-1.22-.31-1.72-.31-.75,0-.95-.53-1.14-3.05-.26-3.56-1.52-5.29-4.54-6.19-1.62-.49-2.15-.43-3.59.42-1.5.87-3.6,3.35-4.09,4.81-.1.31-.75.38-1.56.17-1.25-.31-1.39-.57-1.39-2.63,0-4.3-2.43-7.27-5.95-7.27-1.96,0-4.52,1.67-5.5,3.58-.6,1.16-1.05,1.5-1.68,1.24-.47-.19-1.43-.56-2.13-.81-1.2-.44-1.27-.67-1.27-4.32s-.1-3.94-1.43-5.08c-2.29-1.98-4.84-1.7-7.42.81-2.07,2.01-2.13,2.03-3.62,1.26-1.74-.9-1.71-.78-.93-3.37,1.18-3.95-1.06-7.38-5.18-7.93-2.59-.35-4.16.09-6.07,1.7-1.48,1.25-1.65,1.28-2.79.53l-1.22-.8.97-1.91c3.36-6.58-3.04-11.7-9.42-7.52-1.33.87-1.39.86-2.82-.51l-1.46-1.4,1.23-2.31c1.53-2.89,1.55-4.58.07-6.79-1.72-2.55-4.13-3.02-7.35-1.43l-2.48,1.23-1.07-1.29-1.07-1.29,1.06-1.45c1.59-2.19,1.79-6.38.41-8.62-1.67-2.7-4.62-3.47-8.3-2.15-1.8.64-1.93.62-2.72-.58-.78-1.2-.76-1.32.43-2.61,1.83-1.97,2.4-3.31,2.4-5.69,0-1.74-.32-2.44-1.78-3.9-1.72-1.72-1.88-1.77-5.12-1.6-2.8.14-3.43.02-3.86-.74-.4-.72-.25-1.12.74-1.89,1.52-1.19,2.9-3.98,2.9-5.84,0-3.95-3.21-6.59-7.63-6.28-2.41.17-2.46.14-3-1.6-.51-1.66-.44-1.85.98-2.97,5.18-4.06,3.41-10.57-3.16-11.6-2.45-.38-2.94-.85-2.95-2.8,0-1,.31-1.42,1.21-1.65.67-.17,1.93-1.12,2.8-2.11,1.8-2.05,2.08-4.42.81-6.88-.86-1.66-4.08-3.54-6.07-3.54-.78,0-1.29-.29-1.29-.72,0-.4-.13-1.05-.28-1.45-.19-.5.42-.99,1.96-1.58,3.07-1.17,4.49-2.82,4.8-5.6.2-1.76,0-2.69-.83-4.05-1.04-1.69-3.7-3.39-5.28-3.39-.43,0-.88-.67-1.07-1.59-.52-2.61-.4-2.99.98-2.99,3.05,0,6.33-3.03,6.33-5.84,0-2.15-1.86-4.84-4.21-6.11-1.56-.84-1.89-1.29-1.89-2.61,0-1.47.18-1.64,2.37-2.19,1.49-.37,3.02-1.25,4.13-2.36,1.65-1.65,1.75-1.94,1.52-4.31-.27-2.79-1.53-4.56-3.94-5.56-1.35-.56-1.39-.68-.91-2.58.5-1.99.52-2,3.01-2,4.88,0,6.82-2.09,6.42-6.91-.22-2.63-.45-3.11-2.36-4.89-1.72-1.6-2.06-2.21-1.8-3.23.29-1.14.57-1.25,3.11-1.25,1.72,0,3.36-.33,4.26-.87,1.61-.95,3.02-3.44,3-5.31,0-1.41-1.73-5.37-2.88-6.64-.73-.81-.73-1,.04-2.18.7-1.07,1.08-1.23,2.23-.9,3.82,1.07,7.31-.22,8.53-3.15.86-2.05.36-4.18-1.57-6.7l-1.33-1.74,1.39-2.2c1.34-2.12,1.44-2.17,2.71-1.51.72.38,2.54.69,4.04.69,2.42,0,2.91-.19,4.45-1.73,1.52-1.52,1.73-2.04,1.73-4.38,0-1.78-.36-3.3-1.11-4.62-1.07-1.91-1.08-2-.17-3,.87-.96.99-.98,1.86-.19,1.36,1.23,5.5,1.5,7.46.49,2.82-1.46,3.98-4.94,2.95-8.9-.64-2.47-.62-2.68.31-3.34.87-.61,1.21-.55,2.78.52,3.66,2.48,7.76,1.9,9.85-1.4.91-1.44,1.03-2.24.82-5.63-.31-5.02.35-5.6,3.22-2.87,2.42,2.31,4.36,2.81,6.81,1.79,2.87-1.2,3.99-3.45,3.73-7.49-.14-2.23.34-3.65,1.45-4.25l1.66-.9,2.25,2.35c2.01,2.1,2.48,2.34,4.5,2.33,3.82-.02,6.1-2.74,6.21-7.39.06-2.52.22-2.96,1.29-3.44,1.02-.46,1.34-.39,1.93.44,3.03,4.28,6.31,5.38,9.77,3.27,1.96-1.2,3.15-3.68,3.15-6.58,0-1.13.2-2.05.45-2.05s1.16-.14,2.04-.32c1.33-.27,1.59-.16,1.59.64,0,1.53,1.86,4.14,3.57,5.03,2.81,1.45,6.3-.42,7.92-4.26.4-.94.72-2.26.72-2.93,0-1.09.22-1.21,2.28-1.21s2.32.15,2.6,1.26c.52,2.09,3.99,4.85,6.09,4.85,3.29,0,6.28-2.42,7.12-5.75.3-1.18.6-1.37,2.26-1.37s1.95.16,2.22,1.52c.17.83,1.06,2.35,1.99,3.36,3.16,3.45,8.1,2.71,10.64-1.59,1.1-1.86,2.32-2.12,2.05-.43-.15.93-3.71,13.73-5.73,20.61l-.99,3.36-3.47.32c-11.51,1.07-19.19,8-25.87,23.35-3.29,7.55-3.8,9.88-3.64,16.34l.14,5.53-4.32,1.24c-5.11,1.47-8.79,3.08-11.88,5.21l-2.25,1.55-2.16-2.91c-1.19-1.6-2.76-3.56-3.49-4.36-3.69-4.02-14.97-7.13-28.29-7.79-7.21-.36-10.95.22-15.34,2.37-5.53,2.71-12.17,10.84-17.2,21.06-3.97,8.06-4.95,11.33-5.24,17.44-.37,7.7.52,10.46,5.76,17.82,8.06,11.33,15.27,16.86,24.73,18.98l2.88.64.28,8.45c.15,4.65.43,9.28.61,10.29.32,1.81.29,1.86-2.64,3.5-6.97,3.9-12.8,9.97-17.37,18.07-2.55,4.53-4.96,10.43-5.66,13.89-.78,3.86-.68,10.58.23,14.11,1.79,6.98,15.66,23.12,23.14,26.92,5.48,2.78,12.85,2.97,21.91.58,12.65-3.34,20.75-8.8,27.08-18.24,1.83-2.73,1.87-2.74,6.72-.71,3.86,1.62,9.99,2.88,13.98,2.88h3.08l-.36,2.16c-.2,1.19-.37,3.88-.39,5.98-.05,5.44.92,7,10.31,16.65,7.44,7.64,8.26,8.33,12.29,10.24,4.98,2.36,9.75,3.36,13.64,2.88,5.9-.74,22.72-8.07,29.91-13.05,5.03-3.48,8.05-7.88,9.9-14.46.38-1.35.5-5.3.36-11.45-.19-8.03-.42-10.2-1.6-14.98-1.53-6.2-1.83-6.77-5.78-11.3l-2.76-3.16,1.78-2.18c.98-1.2,3.22-4.93,4.96-8.28,1.75-3.36,3.22-6.17,3.28-6.24.05-.07,2.61.08,5.69.35,9.95.87,14.67-.49,28.54-8.22,10.54-5.87,12.03-7.39,13.95-14.19,2.14-7.58,2.59-11.17,2.3-18.2-.39-9.46-2.95-19.84-5.99-24.25-2.43-3.53-9.18-7.79-15.15-9.56-6.07-1.8-16.68-3.57-21.46-3.58-4.46,0-5.16.13-9.13,1.86-2.36,1.03-4.33,1.82-4.37,1.76-2.34-3.61-4.39-6.08-8.21-9.87l-4.7-4.67,2.47-4.86c3.37-6.61,3.81-9.52,3.42-22.69-.38-12.98-1.41-17.79-4.57-21.25l-1.05-1.15,1.95-8.9,1.95-8.9h2.49c2.45,0,4.09-.69,6.34-2.68,1.03-.91,1.18-.92,2.71-.13,1.19.62,1.53,1.06,1.27,1.69-.89,2.17-.79,4.95.24,6.59,2.14,3.4,6.62,3.62,10.07.47,1-.92,1.29-.96,2.39-.37,1.18.63,1.21.75.51,2.1-1.69,3.26-.46,7.31,2.66,8.8,2.34,1.12,3.64,1.04,6.5-.42l2.44-1.24,1.46,1.08c.8.59,1.46,1.14,1.46,1.21s-.48.94-1.07,1.94c-1.18,1.99-1.38,4.66-.49,6.32,1.39,2.59,7.51,3.73,10.29,1.92,1.21-.8,1.33-.78,2.39.35,1.09,1.16,1.1,1.2.15,2.06-.53.48-1.24,1.86-1.58,3.05-1.22,4.36,1.83,7.94,6.76,7.94,1.35,0,2.88-.23,3.4-.51.77-.41,1.14-.23,1.99.95l1.04,1.46-1.06.96c-3.52,3.18-3.16,8.37.73,10.45,1.12.6,4.13.67,6.57.14,1.17-.25,1.43-.1,1.71,1.02.26,1.04.05,1.54-1.01,2.37-3.27,2.57-3.61,6.92-.73,9.35,1.86,1.56,3.44,2,6.02,1.65,1.8-.24,2.02-.14,2.47,1.15.43,1.23.33,1.5-.73,2.07-1.85.99-3.45,4.69-3.11,7.22.51,3.79,3.41,6.51,7.11,6.66,1.72.07,2.41.32,2.57.94.15.56-.17.95-.93,1.14-.64.16-1.87,1.1-2.74,2.09-1.32,1.5-1.58,2.23-1.58,4.33s.25,2.8,1.84,4.57c1.35,1.49,2.38,2.13,3.85,2.36,3.38.54,4.86,3.28,2.14,3.96-3.37.85-5.65,4.07-5.07,7.17.42,2.24,3.27,4.72,5.9,5.14,1.94.31,2.02.4,2.02,2.25s-.14,1.96-1.65,2.29c-4.26.92-6.42,3.56-5.77,7.05.42,2.25,3.19,5.16,5.35,5.64,1.28.28,1.56.59,1.56,1.76,0,1.27-.21,1.45-2.07,1.7-4.31.58-7.1,3.9-6.13,7.3.77,2.7,1.52,3.68,3.88,5.06,1.59.93,2.28,1.67,2.27,2.43-.01,1.69-.57,2.11-2.96,2.21-4.35.2-7.45,4.21-6.19,8.03.32.97,1.54,2.63,2.72,3.69,1.5,1.34,2.09,2.25,1.97,3.02-.15.98-.46,1.1-2.87,1.04-3.11-.07-4.9.86-6.42,3.35-2.02,3.31-.7,7.92,2.82,9.89.64.36.68.73.22,2.04-.54,1.55-.63,1.59-2.94,1.32-7.12-.84-10.46,5.97-5.57,11.35.92,1.02.94,1.2.21,2.62l-.79,1.52-2.18-.75c-3.84-1.33-7.5-.01-8.83,3.17-1.09,2.6-.88,4.36.84,7.07,1.4,2.21,1.48,2.54.79,3.24s-.99.68-2.82-.14c-4.69-2.12-9.2.44-9.2,5.22,0,1.37.42,3.24.95,4.29.94,1.85.94,1.87-.16,2.9l-1.11,1.04-1.99-1.01c-3.81-1.94-8.6-.99-10.16,2.02-.97,1.87-.99,5.12-.05,7.37.65,1.56.63,1.8-.21,2.56-.87.79-1.06.75-3-.53-4.09-2.71-8.33-1.95-10.78,1.93-.88,1.39-1.01,2.21-.79,5.09.23,3.08.15,3.49-.78,3.99-.88.47-1.31.3-2.75-1.1-1.4-1.36-2.2-1.69-4.4-1.86-4.77-.35-8.02,2.82-8.03,7.83,0,1.6-.24,2.71-.62,2.83-.34.11-1.43-.64-2.42-1.68-4.56-4.76-11.65-1.95-12.01,4.76-.11,2.02-.36,2.67-1.12,2.95-.8.3-1.18-.05-2.06-1.86-.59-1.22-1.63-2.58-2.3-3.02-1.72-1.13-4.51-1.11-6.52.05-2,1.15-4,4.74-4,7.17,0,1.58-.1,1.67-1.81,1.67-1.57,0-1.9-.22-2.52-1.71-1.01-2.41-4-4.91-5.88-4.91-3.81,0-6.66,2.6-7.36,6.7-.31,1.85-.43,1.95-2.21,1.95s-1.91-.1-2.49-2.25h0ZM181.21,380.97c2.85-.79,4.06-2.19,3.63-4.19-.72-3.35-7.15-10.34-13.36-14.54-7.08-4.78-13.46-6.66-22.62-6.66-6.09,0-9.76.56-15.17,2.33-5.32,1.74-9.13,4.1-10.38,6.45-.93,1.74-.95,2.02-.25,3.3,2.24,4.07,27.69,11.93,43.02,13.28,7.3.64,12.91.66,15.14.04h-.01ZM164.66,353.18c3.2-2.38,4.33-7.43,2.41-10.69-3.35-5.67-11.94-5.02-14.27,1.08-1.51,3.96-.37,7.31,3.37,9.87,1.42.98,2.21,1.15,4.43.97,1.62-.13,3.24-.62,4.07-1.24h0ZM264.34,344.4c.9-.55,3.5-3.24,5.78-5.98,9.23-11.1,17.5-25.73,21.87-38.69,2.15-6.4,2.23-6.82,1.48-8.14-.72-1.28-1.04-1.39-3.82-1.38-5.36.03-12.95,4.46-21.23,12.41-4.24,4.07-5.31,5.43-6.98,8.91-3.45,7.17-4.33,11.5-4.29,20.9.04,8.43.58,11.52,2.16,12.45,1.35.79,3.26.61,5.03-.47h0ZM257.62,311.81c4.04-1.95,5.64-7.59,3.18-11.2-1.92-2.82-3.63-3.77-6.74-3.77-2,0-3.17.29-4.18,1.05-5.03,3.73-4.94,10.86.17,13.79,2.46,1.41,4.85,1.45,7.58.14h0ZM71.29,304.69c1.36-1.07,5.2-7.28,6.97-11.29,1.91-4.31,4.08-13.64,4.08-17.51,0-5.31-1.82-13.53-3.94-17.75-2.47-4.9-6.38-10.59-9.51-13.83-2.2-2.27-2.92-2.71-4.42-2.71-2.54,0-3.41,1.24-4.37,6.18-1.06,5.46-1.2,25.3-.22,30.96,2.04,11.82,5.39,24.11,7.1,26.07,1.03,1.18,2.72,1.13,4.32-.13h-.01ZM96.9,277.27c3.08-1.4,4.53-3.72,4.53-7.26,0-3.25-.94-4.95-3.86-6.95-4.27-2.93-11.22.35-11.66,5.51-.29,3.43.04,4.61,1.84,6.61,2.73,3.02,5.63,3.68,9.15,2.08h0ZM250.12,209.72c2.57-1.92,3.43-3.59,3.43-6.69,0-3.54-1.44-5.86-4.53-7.26-2.7-1.22-4.07-1.21-6.74.08-2.83,1.37-4.37,3.84-4.37,7.03,0,3.66,1.87,6.49,5.21,7.86,1.45.6,5.66-.02,7-1.02h0ZM287.36,207.85c.71-2.16.17-3.87-3.05-9.58-8.35-14.82-15.55-23.25-27.12-31.8-9.59-7.09-11.31-7.6-12.9-3.83-.98,2.33-.63,12.24.62,17.4,1.7,7.02,7.03,15.52,12.08,19.26,5.68,4.2,13.35,7.62,22.31,9.94,5.58,1.45,7.22,1.17,8.06-1.38h0ZM150.53,187.55c3.67-2.5,4.82-5.89,3.32-9.81-3.05-7.98-15.2-5.52-15.2,3.07,0,6.1,6.99,10.07,11.88,6.74h0ZM135.38,173.18c4.69-.9,6.28-1.52,10.31-4.08,6-3.8,17.83-17.17,19.9-22.51.78-2,.78-2.24-.02-3.46-1.85-2.83-4.5-2.73-16.32.62-12.22,3.46-24.16,8.97-35.15,16.21-3.1,2.04-6.02,4.3-6.49,5.01-1.2,1.83-1.06,4.08.36,5.72,1.02,1.19,1.95,1.53,6.23,2.27,6.34,1.1,16.01,1.2,21.17.21h0Z"/>
        <path id="path3205" class="st9" d="M160.26,187.51c1.35,3.88,3.77,7.23,7.12,10.12,3.65,1.92,7.09,2.4,9.74-2.62,12.56-42.22,50.3-33.85,43.85,9.74-1.03,4.41,2.05,7.98,4.31,4.68l4.5-6.56"/>
        <path id="path3207" class="st9" d="M160.26,187.88c-7.17,1.66-14.06,3.81-19.49,8.62l16.49,38.6c2.84,6.64,4.18,18.08-8.24,19.11l-45.34,3.75c-.37,6.18-1.21,11.79,1.12,21.36l44.22-1.12c8.13-.21,15.1,8.17,13.58,13.98l-10.58,40.36c6.99,3.61,14.44,5.52,22.48,5.25l11.99-40.47c2.38-8.02,11.3-11.38,17.24-8.62,12.47,5.8,23.87,12.32,34.85,19.11,4.97-5.5,7.54-11.81,10.49-17.99-11.82-6.4-23.39-13.24-33.73-22.11-6.08-3.99-3.22-12.42,1.12-17.61l26.98-32.23c-3.34-6-8.95-10.9-13.68-15.18"/>
        <path id="path3223" class="st9" d="M140.96,196.5l-6-7.87c-2.89-3.8-14.83-7.33-30.35-7.87-5.31-.32-10.62.65-15.93,4.31-8.21,8.04-14.08,17.63-17.8,28.67-1.54,6.03-1.88,12.21.56,18.74,7.25,10.35,13.01,22.08,32.04,25.67"/>
        <path id="path3225" class="st9" d="M160.45,188.26c-.71-6.18-1.67-12.37,1.5-18.55,3.07-8.8,8.16-17.72,14.24-22.3,5.53-4.16,10.73-4.74,16.18-4.89"/>
        <path id="path3252" class="st9" d="M104.61,279.51c-9.95,4.77-19.01,12.85-25.48,30.54-1.73,7.18-2.01,14.05.75,20.24,5.56,8.42,11.93,15.81,19.49,21.74,7.06,4.44,14.12,3.73,21.17,2.25,20.29-4.64,25.24-13.41,31.48-21.92"/>
        <path id="path3258" class="st9" d="M174.69,337.4l-.94,8.62c-.44,4.08,1.6,7.93,4.5,10.49,6.13,5.64,9.95,12.82,18.74,16.68,4.59,1.99,9.34,3.06,14.43,2.06,11.56-4.02,21.4-7.93,29.23-13.87,4.76-3.61,7.23-9.2,8.24-14.24.13-7.37,1.08-14.74-1.12-22.11-1.12-4.95-1.2-8.04-3.37-10.49l-5.81-6.56"/>
        <path id="path3262" class="st9" d="M248.7,290.19l12.37.94,5.43-.75c8.38-2.48,13.86-6.12,19.86-9.56,4.89-2.12,7.97-4.75,9.37-7.87,3.81-11.68,6.44-22.03-.37-42.35-1.79-5.33-7.29-8.88-12.18-11.24-5.33-2.58-11.52-3.25-20.24-4.87-4.56-.78-9.12-1.07-13.68,1.12l-5.81,2.62"/>
        <path id="path3264" class="st9" d="M229.4,203.62l4.5-8.24c2.18-5,1.95-7,2.44-10.49-.32-8.55.47-19.31-2.02-26.03-.7-1.9-1.84-4.86-3.83-5.82"/>
      </g>
      <path class="st2" d="M196.75,100.85l-33.45,318.3"/>
      <path class="st2" d="M163.3,100.85l33.45,318.3"/>
      <path class="st2" d="M130.6,107.8l98.85,304.4"/>
      <path class="st2" d="M100,121.4l160.05,277.15"/>
      <path class="st2" d="M73,141.05l214.05,237.85"/>
      <path class="st2" d="M50.6,165.95l258.85,188.1"/>
      <path class="st2" d="M33.84,194.93l292.38,130.18"/>
      <path class="st2" d="M23.51,226.75l313.05,66.55"/>
      <line class="st4" x1="180.03" y1="259.97" x2="100.34" y2="150.31"/>
      <line class="st4" x1="180.03" y1="259.97" x2="124.88" y2="136.14"/>
      <line class="st4" x1="79.28" y1="169.28" x2="180.03" y2="259.97"/>
    </g>
    <g id="isolated_x5F_copies" class="st10">
      <g class="st10">
        <path class="st4" d="M154.39,212.7c-9.44-13-23.79-72.7,25.61-72.7"/>
        <g>
          <line class="st4" x1="146.87" y1="202.35" x2="186.3" y2="256.63"/>
          <line class="st4" x1="146.87" y1="202.35" x2="135.46" y2="210.64"/>
          <line class="st4" x1="135.46" y1="210.64" x2="174.88" y2="264.89"/>
          <line class="st4" x1="154.39" y1="212.7" x2="142.98" y2="220.99"/>
        </g>
        <path class="st4" d="M90.81,179.65c11.18-12.4,24.94-22.43,40.39-29.32,11.19-5.74,9.21,23.23-6.06,34.11-15.07,11.16-43.26,4.08-34.34-4.8h0Z"/>
        <path class="st4" d="M142.98,220.99c-9.44-13-61.79-45.09-77.06,1.89"/>
      </g>
      <g>
        <path class="st4" d="M82.93,189.44c14.75-20.26,35.68-35.72,60.02-43.61h0c11.52-3.9-2.54,27.74-17.8,38.62s-49.63,14.64-42.22,4.99h0Z"/>
        <path class="st4" d="M154.39,212.7c-9.44-13-15.56-72.7,25.61-72.7"/>
        <g>
          <line class="st4" x1="146.87" y1="202.35" x2="186.3" y2="256.63"/>
          <line class="st4" x1="146.87" y1="202.35" x2="135.46" y2="210.64"/>
          <line class="st4" x1="135.46" y1="210.64" x2="174.88" y2="264.89"/>
          <line class="st4" x1="154.39" y1="212.7" x2="142.98" y2="220.99"/>
        </g>
        <path class="st4" d="M142.98,220.99c-9.44-13-64.33-37.26-77.06,1.89"/>
      </g>
      <g class="st10">
        <line class="st4" x1="187.07" y1="192.92" x2="187.07" y2="260"/>
        <line class="st4" x1="187.07" y1="192.92" x2="172.98" y2="192.92"/>
        <line class="st4" x1="172.98" y1="192.92" x2="172.98" y2="259.97"/>
      </g>
      <circle id="middle" class="st4" cx="180" cy="260" r="30"/>
      <circle id="inner_x5F_ring" class="st7" cx="180" cy="260" r="120"/>
      <circle id="outer_x5F_ring" class="st1" cx="180" cy="260" r="145"/>
      <path id="star" class="st1" d="M340.03,260.02l-33.37,13.26,29.84,19.97-35.39,6.1,25.1,25.71-35.94-1.41,19.21,30.4-34.83-8.87,12.45,33.73-32.21-15.88,5.19,35.55-28.23-22.29-2.37,35.9-22.94-27.63-9.78,34.59-16.69-31.81-16.74,31.81-9.78-34.59-22.94,27.63-2.37-35.9-28.23,22.29,5.19-35.55-32.21,15.88,12.45-33.73-34.83,8.87,19.21-30.4-35.94,1.41,25.1-25.71-35.44-6.1,29.89-19.97-33.42-13.26,33.42-13.31-29.89-19.97,35.44-6.1-25.1-25.71,35.94,1.41-19.21-30.4,34.83,8.87-12.45-33.73,32.21,15.88-5.19-35.55,28.23,22.29,2.37-35.9,22.94,27.63,9.78-34.59,16.69,31.81,16.74-31.81,9.78,34.59,22.94-27.63,2.37,35.9,28.23-22.29-5.19,35.55,32.21-15.88-12.45,33.73,34.83-8.87-19.21,30.4,35.94-1.41-25.1,25.71,35.39,6.1-29.84,19.97,33.37,13.31h0Z"/>
      <path class="st1" d="M158.93,116.38c3.92-.53,7.91-.88,11.97-1.07,0,2.51.89,4.64,2.65,6.4.41.42.83.78,1.27,1.1,1.5,1.07,3.23,1.6,5.18,1.6s3.68-.54,5.18-1.62c.45-.31.87-.67,1.27-1.08,1.8-1.77,2.7-3.92,2.7-6.45,4.06.23,8.05.62,11.98,1.15"/>
      <path class="st1" d="M189.15,115.29c0,2.53-.9,4.68-2.69,6.44-1.76,1.79-3.9,2.69-6.44,2.69s-4.7-.9-6.49-2.69-2.64-3.9-2.64-6.44.88-4.7,2.64-6.49c1.79-1.76,3.95-2.64,6.49-2.64s4.68.88,6.44,2.64c1.79,1.79,2.69,3.95,2.69,6.49Z"/>
      <circle id="cutout_x5F_ring" class="st1" cx="180" cy="115" r="9.12"/>
      <path class="st2" d="M195.18,115.8c-2-.21-4.01-.38-6.03-.5,0,2.53-.9,4.68-2.69,6.43-1.76,1.79-3.9,2.69-6.44,2.69s-4.7-.9-6.49-2.69c-1.76-1.76-2.64-3.9-2.64-6.44-4.06.25-8.08.67-12.04,1.25v.02c.53,2.48.1,4.76-1.29,6.86-1.35,2.12-3.26,3.44-5.74,3.97-2.48.53-4.78.1-6.91-1.28-2.08-1.35-3.39-3.27-3.92-5.75v-.04c-3.91,1.09-7.75,2.34-11.52,3.74,0,.01,0,.03.02.04,1.03,2.32,1.09,4.64.16,6.97-.88,2.35-2.47,4.04-4.79,5.07s-4.66,1.09-7.02.18c-2.32-.89-4-2.49-5.03-4.81,0,0,0-.02-.01-.04-3.59,1.88-7.08,3.9-10.49,6.06,0,0,.01.02.02.03,1.49,2.05,2.03,4.31,1.61,6.79-.37,2.48-1.58,4.47-3.63,5.96-2.05,1.49-4.33,2.04-6.83,1.64-2.45-.39-4.43-1.61-5.92-3.66,0,0,0-.02-.01-.02-3.11,2.58-6.11,5.28-8.99,8.11h.01c1.88,1.71,2.88,3.81,2.99,6.31.16,2.5-.62,4.7-2.31,6.58-1.7,1.88-3.81,2.89-6.34,3.02-2.48.13-4.66-.65-6.55-2.35,0,0-.01,0-.02-.02-2.51,3.16-4.88,6.43-7.13,9.79,0,0,.03,0,.04.02,2.2,1.27,3.61,3.12,4.23,5.55.67,2.42.38,4.72-.89,6.92s-3.12,3.62-5.57,4.28c-2.4.64-4.7.33-6.89-.94-.02,0-.03-.02-.05-.03-.9,1.81-1.77,3.64-2.59,5.5"/>
    </g>
  </g>
  <g id="flask">
    <circle class="st11" cx="180" cy="320" r="180"/>
    <rect class="st11" x="120" y="24" width="120" height="128"/>
    <path class="st11" d="M249.57,153.94c-7.62-2.94-9.57-5.91-9.57-15.35v11.66l9.57,3.69Z"/>
    <path class="st11" d="M110.43,153.94c7.62-2.94,9.57-5.91,9.57-15.35v11.66l-9.57,3.69Z"/>
    <rect class="st11" x="116" width="128" height="24"/>
  </g>
  <g id="sprocket">
    <path class="st12" d="M324.88,314.72h-.04c-2.52.26-4.75-.4-6.68-2-1.97-1.56-3.08-3.6-3.35-6.12-.26-2.52.4-4.77,1.99-6.73,1.56-1.93,3.61-3.03,6.13-3.29h.06c-.34-1.99-.71-3.99-1.13-5.97v-.04c-.42-1.97-.88-3.93-1.39-5.89-2.41.78-4.72.59-6.95-.57-2.25-1.12-3.76-2.88-4.54-5.29s-.6-4.74.55-7c1.13-2.21,2.9-3.71,5.31-4.5-1.49-3.78-3.13-7.47-4.91-11.06h-.02c-2.2,1.27-4.5,1.56-6.92.89-2.43-.63-4.28-2.04-5.55-4.23-1.27-2.2-1.57-4.52-.92-6.96.64-2.4,2.06-4.23,4.26-5.5.01,0,.02,0,.04-.02-2.24-3.38-4.62-6.65-7.12-9.8-.01,0-.02.02-.03.03-1.88,1.7-4.08,2.47-6.58,2.31-2.51-.11-4.61-1.1-6.3-2.99s-2.48-4.09-2.35-6.62c.13-2.48,1.14-4.57,3.02-6.27,0,0,.02-.02.03-.02-2.89-2.83-5.9-5.53-9-8.1,0,0-.01.02-.02.03-1.49,2.05-3.48,3.26-5.96,3.63-2.47.42-4.74-.12-6.79-1.61-2.05-1.49-3.27-3.49-3.67-5.99-.39-2.45.16-4.71,1.65-6.76l.02-.02c-3.41-2.16-6.91-4.17-10.49-6.05v.02c-1.03,2.32-2.72,3.91-5.07,4.79-2.33.92-4.66.87-6.97-.16-2.32-1.03-3.93-2.73-4.84-5.09-.89-2.32-.82-4.64.21-6.95,0,0,0-.02,0-.03-3.78-1.41-7.62-2.66-11.52-3.75v.04c-.53,2.48-1.85,4.39-3.97,5.74-2.09,1.39-4.38,1.82-6.86,1.29-2.48-.53-4.41-1.85-5.79-3.98-1.35-2.08-1.77-4.37-1.24-6.85,0-.02,0-.04,0-.06-2-.3-4.01-.55-6.03-.77v.02c-1.99-.21-4-.38-6.02-.5,0,2.53-.9,4.68-2.69,6.43-1.76,1.79-3.9,2.69-6.44,2.69s-4.7-.9-6.49-2.69-2.64-3.9-2.64-6.44c-4.06.25-8.08.67-12.04,1.25v.02c.53,2.48.1,4.76-1.29,6.86-1.35,2.12-3.26,3.44-5.74,3.97-2.48.53-4.78.1-6.91-1.28-2.08-1.35-3.39-3.27-3.92-5.75v-.04c-3.91,1.09-7.75,2.34-11.52,3.74,0,0,0,.03.02.04,1.03,2.32,1.09,4.64.16,6.97-.88,2.35-2.47,4.04-4.79,5.07-2.32,1.03-4.66,1.09-7.02.18-2.32-.89-4-2.49-5.03-4.81,0,0,0-.02-.01-.04-3.59,1.88-7.08,3.9-10.49,6.06,0,0,.01.02.02.03,1.49,2.05,2.03,4.31,1.61,6.79-.37,2.48-1.58,4.47-3.63,5.96s-4.33,2.04-6.83,1.64c-2.45-.39-4.43-1.61-5.92-3.66,0,0,0-.02-.01-.02-3.11,2.58-6.11,5.28-8.99,8.11h.01c1.88,1.71,2.88,3.81,2.99,6.31.16,2.5-.62,4.7-2.31,6.58-1.7,1.88-3.81,2.89-6.34,3.02-2.48.13-4.66-.65-6.55-2.35,0,0-.01,0-.02-.02-2.51,3.16-4.88,6.43-7.13,9.79,0,0,.03,0,.04.02,2.2,1.27,3.61,3.12,4.23,5.55.67,2.42.38,4.72-.89,6.92s-3.12,3.62-5.57,4.28c-2.4.64-4.7.33-6.89-.94-.02-.01-.03-.02-.05-.03-.9,1.81-1.77,3.64-2.59,5.5h.02c-.82,1.84-1.6,3.7-2.34,5.58,2.41.78,4.17,2.3,5.29,4.54,1.16,2.22,1.35,4.54.57,6.95s-2.3,4.19-4.56,5.34c-2.21,1.13-4.53,1.3-6.94.52-1.02,3.94-1.86,7.89-2.53,11.83h.02c2.52.26,4.56,1.38,6.12,3.35,1.6,1.93,2.26,4.16,2,6.68s-1.38,4.58-3.35,6.17c-1.93,1.56-4.16,2.21-6.68,1.95h-.04c-.17,4.05-.17,8.1,0,12.11h.05c2.52-.26,4.75.4,6.68,2,1.97,1.56,3.08,3.6,3.35,6.12s-.4,4.77-1.99,6.73c-1.56,1.93-3.61,3.03-6.13,3.29h-.04c.68,3.99,1.52,7.94,2.52,11.85,0,0,.02,0,.03-.01,2.41-.78,4.73-.59,6.95.57,2.25,1.12,3.76,2.88,4.54,5.29.78,2.41.6,4.74-.55,7-1.13,2.21-2.9,3.71-5.31,4.5h-.03c1.49,3.75,3.14,7.44,4.93,11.06,0,0,0,0,.02-.01,2.2-1.27,4.5-1.56,6.92-.89,2.43.63,4.28,2.04,5.55,4.23,1.27,2.2,1.57,4.52.92,6.96-.64,2.4-2.06,4.23-4.26,5.5,0,0-.02,0-.03.01,2.23,3.36,4.6,6.63,7.11,9.8.01,0,.02-.02.03-.03,1.88-1.7,4.08-2.47,6.58-2.31,2.51.11,4.61,1.1,6.3,2.99,1.7,1.88,2.48,4.09,2.35,6.62-.13,2.48-1.14,4.57-3.02,6.27,0,.01-.03.02-.05.04,1.44,1.42,2.92,2.8,4.43,4.16v.02c1.5,1.34,3.03,2.66,4.59,3.95,1.49-2.05,3.47-3.26,5.95-3.63,2.47-.42,4.74.12,6.79,1.61s3.27,3.49,3.67,5.99c.39,2.45-.16,4.71-1.65,6.76,3.43,2.18,6.93,4.21,10.47,6.07v-.02c1.03-2.32,2.72-3.91,5.07-4.79,2.33-.92,4.66-.87,6.97.16,2.32,1.03,3.93,2.73,4.84,5.09.89,2.32.82,4.64-.21,6.95,0,.01,0,.02-.02.04,3.8,1.42,7.65,2.67,11.52,3.75v-.05c.53-2.48,1.85-4.39,3.97-5.74,2.09-1.39,4.38-1.82,6.86-1.29s4.41,1.85,5.79,3.98c1.35,2.08,1.77,4.37,1.24,6.85v.04c4,.59,8.02,1.01,12.05,1.26v-.04c0-2.53.9-4.68,2.69-6.44,1.76-1.79,3.9-2.69,6.44-2.69s4.7.9,6.49,2.69,2.64,3.9,2.64,6.44v.03c4.03-.26,8.05-.69,12.04-1.27v-.02c-.53-2.48-.1-4.76,1.29-6.86,1.35-2.12,3.26-3.44,5.74-3.97,2.48-.53,4.78-.1,6.91,1.28,2.08,1.35,3.39,3.27,3.92,5.75v.03c3.89-1.08,7.73-2.33,11.52-3.73,0-.01,0-.03-.02-.04-1.03-2.32-1.09-4.64-.16-6.97.88-2.35,2.47-4.04,4.79-5.07,2.32-1.03,4.66-1.09,7.02-.18,2.32.89,4,2.49,5.03,4.81,0,.02,0,.04.02.06,1.79-.94,3.57-1.91,5.33-2.92l-.03-.02c1.74-1.01,3.46-2.05,5.17-3.14-1.49-2.05-2.02-4.31-1.61-6.78.37-2.48,1.58-4.47,3.63-5.96,2.05-1.49,4.33-2.04,6.83-1.64,2.45.39,4.43,1.61,5.92,3.66,3.14-2.59,6.14-5.29,9.01-8.08h-.01c-1.88-1.71-2.88-3.81-2.99-6.31-.16-2.5.62-4.7,2.31-6.58,1.7-1.88,3.81-2.89,6.34-3.02,2.48-.13,4.66.65,6.55,2.35.01,0,.02.02.03.03,2.52-3.18,4.9-6.45,7.12-9.8-.01,0-.03-.01-.04-.02-2.2-1.27-3.61-3.12-4.23-5.55-.67-2.42-.38-4.72.89-6.92s3.12-3.62,5.57-4.28c2.4-.64,4.7-.33,6.89.94.01,0,.02.01.03.02,1.8-3.63,3.44-7.32,4.92-11.07h-.03c-2.41-.78-4.17-2.3-5.29-4.54-1.16-2.22-1.35-4.54-.57-6.95s2.3-4.19,4.56-5.34c2.21-1.13,4.53-1.3,6.94-.52h.03c1-3.91,1.83-7.87,2.51-11.84h-.02c-2.52-.26-4.56-1.38-6.12-3.34-1.6-1.94-2.26-4.16-2-6.68s1.38-4.58,3.35-6.17c1.93-1.56,4.16-2.21,6.68-1.95h.03c.17-4.03.17-8.07,0-12.11h0ZM217.06,206.5h0c23.82,7.77,45,22.9,60.03,43.61,7.27,9.75-27.16,6.16-42.23-5-15.27-11.31-29.26-42.67-17.79-38.61h0ZM180,200.67c41.17,0,35.05,59.7,25.61,72.7l-25.62,35.25-25.6-35.25c-9.44-13-15.56-72.7,25.61-72.7ZM82.93,250.11c14.75-20.26,35.68-35.72,60.02-43.61,11.52-3.9-2.54,27.74-17.8,38.62-15.26,10.88-49.63,14.64-42.22,4.99ZM82.95,391.16h0c-14.71-20.3-22.94-44.98-22.93-70.57-.14-12.16,25.6,10.98,31.23,28.87,5.71,18.12-1.41,51.72-8.3,41.7ZM65.93,283.55h-.01c12.73-39.15,67.62-14.89,77.06-1.89l25.61,35.25-41.43,13.46c-15.28,4.96-73.95-7.67-61.23-46.82h0ZM109.5,417.64h0c-33.31-24.19,6.73-68.9,22.01-73.86l41.44-13.46v43.56c0,16.07-30.15,67.96-63.45,43.76h0ZM217.1,434.71c-23.84,7.72-49.86,7.92-74.19,0-11.61-3.62,18.35-20.95,37.1-20.78,19,.17,48.75,17.33,37.09,20.78ZM250.5,417.65h0c-33.3,24.19-63.45-27.7-63.45-43.77v-43.57l41.44,13.47c15.28,4.96,55.32,49.67,22.01,73.87ZM232.84,330.37l-41.43-13.47,25.61-35.24c9.44-13,64.33-37.26,77.06,1.89h-.01c12.72,39.15-45.95,51.78-61.23,46.82h0ZM277.04,391.15c-7.03,9.92-14.25-23.93-8.3-41.71s31.55-41.01,31.22-28.85h.01c-.03,25.06-7.87,49.87-22.93,70.56h0Z"/>
    <circle class="st12" cx="180" cy="320.67" r="30"/>
  </g>
  <g id="bubbles">
    <circle class="st12" cx="195.2" cy="139.41" r="14"/>
    <circle class="st12" cx="158" cy="120" r="10"/>
    <circle class="st12" cx="152" cy="79" r="14"/>
    <circle class="st12" cx="202" cy="94" r="8"/>
    <circle class="st12" cx="190.5" cy="47.5" r="16"/>
  </g>
</svg>